<svg width="93" height="112" viewBox="0 0 93 112" fill="none" xmlns="http://www.w3.org/2000/svg">
<path d="M52.8541 55.0595L49.9686 53.6989L50.1328 53.347L49.781 53.1593L49.5698 53.5112L47.6227 52.5963L46.6139 52.1271L46.3089 51.9863L46.004 51.8456L45.9805 51.8221L44.9483 51.3294L44.8545 51.306L44.6199 51.1887L44.3149 51.0479L44.0803 50.9306L43.7049 50.7664L41.617 49.7811L41.0775 49.5231L40.7959 49.3823L38.2623 48.2093L37.5585 47.8809L36.4794 47.3648L35.4941 46.8956L35.3064 46.8252L34.2273 46.8956L33.8519 46.9425L35.5645 47.7636L36.9486 48.4439L37.887 48.9131L39.7872 49.8515L40.4206 50.1565L41.617 50.743L43.2592 51.5406H43.2827L43.5642 51.6813L43.8691 51.8456L44.9483 52.3617L45.2533 52.5024L45.5348 52.6666L47.7869 53.7692H47.8338L48.2561 53.8631L48.8426 53.9804L49.1006 54.2384L48.7957 54.6842L49.3352 54.9657L49.4994 54.6372L52.385 56.0448L52.8541 55.0595Z" fill="white"/>
<path d="M45.9575 34.8373L47.154 33.7348L47.6231 32.6322L47.7639 32.3037L47.6231 32.2803L47.3416 32.2333L46.849 32.163L45.6291 34.8608L45.676 35.0954L45.9575 34.8373Z" fill="white"/>
<path d="M45.2767 50.6019L45.8163 50.3439V48.4671V47.0595V46.8953V46.8249V45.8866V44.0098V43.1183V41.7811V41.1243V40.5143L45.0186 39.8105H44.8779L44.0803 40.5847V40.9366V42.7664V43.1183V44.8074V46.7311V46.8953V47.6226V47.8806V48.514V50.0624V50.3439L44.9483 50.7427L45.2767 50.6019Z" fill="white"/>
<path d="M40.4674 43.2591L40.6082 43.1183L41.617 42.1565L42.438 41.4058L43.3295 40.5612L44.0802 39.8574V39.834L43.2826 39.8574H41.8985L41.617 39.8809H41.2885L39.4821 41.5465L38.6845 42.2738L38.4969 43.1183L37.9338 45.5581L37.8869 45.6754L37.9807 45.605L40.4674 43.2591Z" fill="white"/>
<path d="M47.5995 34.0628L47.1303 34.485L46.6611 34.9308L45.7932 35.7284L45.8401 36.0099L46.2623 35.8222L46.6142 35.6815L46.9661 35.5407L47.623 35.2592L49.9924 34.2739L52.1976 32.2095L50.1566 31.6934L47.623 34.0393L47.5995 34.0628Z" fill="white"/>
<path d="M49.5936 35.0246L48.9133 35.3061L47.623 35.8457L46.6846 36.2445L46.3327 36.3852L45.9808 36.526L45.7697 36.5964L45.887 36.7137L46.0043 36.8075H46.1451H46.4266L47.3415 36.784H47.623H47.7169H48.1157L50.5085 36.7371H50.8604L51.9865 36.2914L54.8251 35.1888L53.2064 34.227L53.136 34.1566L52.5261 33.8047L50.2739 34.7431L49.5936 35.0246Z" fill="white"/>
<path d="M44.1739 35.2362L44.2208 34.8374L43.1417 32.421L42.2267 32.5618L42.8836 34.1336L44.1739 35.2362Z" fill="white"/>
<path d="M53.839 37.2305L51.4696 37.2539L50.9535 37.2774H50.2028H49.9447H49.4286L47.6222 37.3243H47.5518H47.153H46.7542H46.6135L46.6838 37.3947L46.895 37.5589L47.1061 37.7466L47.458 38.0516L47.6222 38.1923L47.6926 38.2392L47.9272 38.4504L48.326 38.7788L48.8421 39.2245L50.4139 39.2011L53.2056 39.1542L55.8096 39.1307L54.5428 37.9108L53.839 37.2305Z" fill="white"/>
<path d="M40.8668 39.3651L41.0779 39.3416H41.4767H41.6175H41.8755L43.5412 39.3182L42.3682 38.8724L42.0867 38.7551L41.8286 38.6613L41.6175 38.5909L38.5912 37.4414L37.1367 37.4649H37.0194H36.4798L34.2277 39.4589L38.2393 39.3885L40.8668 39.3651Z" fill="white"/>
<path d="M38.6851 36.9013L39.342 37.1594L40.0223 37.4175L41.6176 38.0274L42.251 38.262L42.5325 38.3558L42.814 38.4731L43.7993 38.8485L43.987 38.9189L43.8462 38.7781L43.1425 38.1682L42.9313 37.9805L42.7436 37.8163L42.251 37.394L41.946 37.1359L41.6645 36.8779L41.6176 36.831L39.7408 35.1888L36.4096 33.8047L35.3773 34.4381L34.1105 35.1888L36.2923 36.0099L38.6851 36.9013Z" fill="white"/>
<path d="M44.8783 35.8461H44.9018L45.0191 35.9634L45.0895 36.0103V36.0338H45.1129H45.3006L45.2771 35.8696V35.8461L45.2537 35.7288L45.2068 35.5411L45.1599 35.2596L45.0895 34.7904L45.0191 34.3682H44.8314L44.7845 34.767L44.6907 35.2596L44.6437 35.635L44.6907 35.6819L44.8783 35.8461Z" fill="white"/>
<path d="M40.6321 35.2834L41.2655 35.823L41.6174 36.128L42.4384 36.8552L42.7434 37.1133L43.0484 37.3713L43.1188 37.4652L43.3299 37.6294L43.5176 37.8171L44.0571 38.2863L44.0806 38.3097H44.1041L44.4325 38.6147C44.4481 38.5991 44.456 38.5912 44.456 38.5912V38.6147L44.5733 38.732L44.6671 38.8024L44.9017 39.0135L44.9486 39.037L45.0425 39.1308L45.0659 39.1543L45.1363 39.2246H45.1597L45.2301 39.295L45.3474 39.3889L45.3943 39.4358L45.5116 39.5531L45.8166 39.8111L46.5439 40.4445L47.623 41.3829L48.7256 42.3682L48.9602 42.5559L49.2652 42.8374L49.5936 43.1189L50.9543 44.3154L51.963 45.1834L52.2445 45.4414L52.1507 45.113L52.0803 44.8784L51.6111 43.1189L51.3296 42.0632L50.8839 41.6644L50.6962 41.5237L49.664 40.6322L48.6552 39.7642L48.3502 39.5062L48.0453 39.2481L47.928 39.1543L47.623 38.8962L47.3649 38.6616L47.1303 38.4739L46.8958 38.2628L46.7081 38.0986L46.4969 37.9344L46.3093 37.7467L46.0981 37.5825L45.887 37.3948L45.8166 37.3479L45.6759 37.2306L45.5116 37.0664L45.4178 36.996L45.2301 36.8552V36.8318L45.2067 36.8083L44.9955 36.6441L44.9017 36.5503L44.7844 36.4564L44.6906 36.3626L44.5967 36.2922L44.4794 36.1984L44.456 36.1749L44.3152 36.0342L44.0806 35.8465L43.3534 35.2131L42.9076 34.8377L42.4384 34.4389L42.2508 34.2747L41.6174 33.7351L39.4825 31.9053L37.465 32.4918L40.0221 34.7204L40.6321 35.2834Z" fill="white"/>
<path d="M43.259 52.127L42.8602 52.3146L41.6168 52.9011L40.3265 53.5111L40.0919 53.1592L39.74 53.3469L39.9277 53.6987L37.0187 55.0594L37.4879 56.0447L40.3735 54.6371L40.5377 54.9656L41.0772 54.684L40.7723 54.2383L41.0538 53.9803L41.6168 53.863L42.0625 53.7691H42.086L44.3381 52.6665L43.259 52.127Z" fill="white"/>
<path d="M46.6145 51.5406L47.6232 51.0479L49.3358 50.2034L51.4237 49.1946L56.0217 46.9425L55.6698 46.8956L54.5672 46.8252L54.3796 46.8956L51.0248 48.4908L48.3739 49.7342L47.6232 50.0861L45.8168 50.9306L45.5588 51.0479L45.8168 51.1652L46.6145 51.5406Z" fill="white"/>
<path d="M27.6824 42.2744H21.9817C21.9348 42.8218 21.9113 43.3614 21.9113 43.8931C21.9113 45.1912 22.013 46.458 22.2163 47.6936H28.0108C27.7527 46.4737 27.5885 45.2069 27.5885 43.8931C27.5885 43.3457 27.6198 42.8062 27.6824 42.2744Z" fill="white"/>
<path d="M68.9946 43.8931C68.9946 45.1912 68.893 46.458 68.6896 47.6936H76.3374C76.5095 46.3329 76.5955 44.9488 76.5955 43.5412C76.5955 43.119 76.5877 42.6967 76.572 42.2744H68.9477C68.979 42.8218 68.9946 43.3614 68.9946 43.8931Z" fill="white"/>
<path d="M12.6682 42.2744C12.6525 42.6967 12.6447 43.119 12.6447 43.5412C12.6447 44.9488 12.7307 46.3329 12.9028 47.6936H21.0432C20.8556 46.458 20.7617 45.1912 20.7617 43.8931C20.7617 43.3614 20.7774 42.8218 20.8086 42.2744H12.6682Z" fill="white"/>
<path d="M61.9328 47.6936H67.5162C67.7195 46.458 67.8211 45.1912 67.8211 43.8931C67.8211 43.3614 67.8055 42.8218 67.7742 42.2744H62.2612C62.3238 42.8062 62.3551 43.3457 62.3551 43.8931C62.3551 45.2069 62.1909 46.4737 61.9328 47.6936Z" fill="white"/>
<path d="M88.6533 47.6936V42.2744H79.7621C79.7777 42.6967 79.7856 43.119 79.7856 43.5412C79.7856 44.9488 79.7074 46.3329 79.551 47.6936H88.6533Z" fill="white"/>
<path d="M9.45422 43.5412C9.45422 43.119 9.46204 42.6967 9.47768 42.2744H0.164246V47.6936H9.68881C9.53241 46.3329 9.45422 44.9488 9.45422 43.5412Z" fill="white"/>
<path d="M21.5824 37.6058C22.2627 35.0722 23.3653 32.6559 24.8198 30.4741L17.3597 26.8145C15.999 29.0431 14.8964 31.436 14.1223 33.9461L21.5824 37.6058Z" fill="white"/>
<path d="M25.8753 30.9902C24.3973 33.172 23.2947 35.5883 22.6379 38.1219L27.8928 40.7025C28.3855 38.0516 29.4881 35.6118 31.0364 33.5239L25.8753 30.9902Z" fill="white"/>
<path d="M67.7507 51.5645C66.9296 54.0512 65.6863 56.3737 64.091 58.485L70.8708 61.8163C72.3722 59.658 73.6156 57.3355 74.5305 54.8957L67.7507 51.5645Z" fill="white"/>
<path d="M77.0179 57.2411C76.1264 59.3525 75.0473 61.37 73.7805 63.2467L89.1464 70.8007L92.595 63.7629L77.4167 56.3027C77.2916 56.6155 77.1586 56.9283 77.0179 57.2411Z" fill="white"/>
<path d="M12.2223 29.864C12.8635 28.3157 13.622 26.8221 14.4978 25.3832L4.87942 20.6679L1.40741 27.7057L11.2135 32.5149C11.5106 31.6235 11.8469 30.7398 12.2223 29.864Z" fill="white"/>
<path d="M63.0118 57.9688C64.654 55.8809 65.8973 53.5349 66.6949 51.0482L61.6981 48.585C60.9708 51.1655 59.6805 53.5115 57.9211 55.4586L63.0118 57.9688Z" fill="white"/>
<path d="M54.1447 66.1791L57.7575 72.044L63.6224 68.4547L60.0565 62.6367C58.2501 64.1147 56.2561 65.2876 54.1447 66.1791Z" fill="white"/>
<path d="M53.5342 65.1709C55.6456 64.3029 57.6396 63.1299 59.4225 61.6519L56.5136 56.8896C54.801 58.4145 52.7835 59.5875 50.5783 60.3382L53.5342 65.1709Z" fill="white"/>
<path d="M35.0016 21.8644L31.0135 15.3895L25.1721 18.9788L29.2071 25.5475C30.9666 24.0461 32.9137 22.8027 35.0016 21.8644Z" fill="white"/>
<path d="M35.6111 22.873C33.5232 23.788 31.5761 25.0313 29.8166 26.5562L32.8429 31.4827C34.485 29.864 36.4322 28.5972 38.6139 27.7292L35.6111 22.873Z" fill="white"/>
<path d="M41.007 78.543V87.1526H47.8337V78.5664C46.7702 78.6759 45.6989 78.7306 44.6198 78.7306C43.3999 78.7306 42.1956 78.6681 41.007 78.543Z" fill="white"/>
<path d="M47.8339 26.7673V21.137C46.8642 21.0119 45.8789 20.9494 44.878 20.9494C43.5642 20.9494 42.274 21.0588 41.0071 21.2778V26.9785C42.274 26.6969 43.6112 26.5327 44.9718 26.5327C45.9415 26.5327 46.8955 26.6109 47.8339 26.7673Z" fill="white"/>
<path d="M41.0071 67.7042V75.3285C42.1958 75.4537 43.4 75.5162 44.6199 75.5162C45.6991 75.5162 46.7704 75.4615 47.8339 75.352V67.845C46.8642 67.9701 45.8789 68.0326 44.878 68.0326C43.5642 68.0326 42.274 67.9231 41.0071 67.7042Z" fill="white"/>
<path d="M41.007 60.8066V66.5308C42.2738 66.7497 43.5641 66.8592 44.8778 66.8592C45.8788 66.8592 46.8641 66.7966 47.8337 66.6715V61.0412C46.8954 61.2055 45.957 61.2758 44.9717 61.2758C43.611 61.2758 42.2738 61.1116 41.007 60.8066Z" fill="white"/>
<path d="M47.8339 19.9641V11.7298C46.7704 11.6203 45.6991 11.5656 44.6199 11.5656C43.4 11.5812 42.1958 11.6516 41.0071 11.7767V20.0814C42.274 19.8781 43.5642 19.7764 44.878 19.7764C45.8789 19.7764 46.8642 19.839 47.8339 19.9641Z" fill="white"/>
<path d="M47.8339 8.51581V0H41.0071V8.56273C42.1958 8.43761 43.4 8.37505 44.6199 8.37505C45.6991 8.37505 46.7704 8.42197 47.8339 8.51581Z" fill="white"/>
<path d="M58.6951 25.6183C56.8652 24.2107 54.8242 23.1316 52.6894 22.334L49.8039 27.2136C52.0325 27.847 54.097 28.9496 55.8565 30.3806L58.6951 25.6183Z" fill="white"/>
<path d="M32.6321 56.1152L29.6528 61.1355C31.3888 62.6838 33.3125 63.9272 35.4004 64.8656L38.3093 59.9391C36.1745 59.0476 34.2508 57.7573 32.6321 56.1152Z" fill="white"/>
<path d="M25.0547 68.8772C26.8845 70.2848 28.8317 71.4812 30.8727 72.4665L34.7904 65.8744C32.726 64.9125 30.8023 63.6692 29.0428 62.1678L25.0547 68.8772Z" fill="white"/>
<path d="M65.0301 14.9201L69.2529 7.83531L63.3645 4.33984L59.1183 11.5185C59.306 11.6123 59.5015 11.6983 59.7048 11.7765C61.5816 12.6836 63.3567 13.7315 65.0301 14.9201Z" fill="white"/>
<path d="M18.8848 79.2697L24.7731 82.7652L29.2539 75.2112C27.1894 74.2025 25.2423 73.0295 23.4125 71.6454L18.8848 79.2697Z" fill="white"/>
<path d="M63.3876 17.6887C61.5343 16.3281 59.5637 15.202 57.4758 14.2871L53.2766 21.325C55.4348 22.1226 57.4523 23.2252 59.2822 24.6093L63.3876 17.6887Z" fill="white"/>
<path d="M59.6579 34.6263L63.9041 31.0604C63.388 30.341 62.8328 29.645 62.2384 28.9725C61.91 28.6128 61.5738 28.2687 61.2297 27.9403L57.0539 31.4358C58.0392 32.3742 58.9307 33.4533 59.6579 34.6263Z" fill="white"/>
<path d="M62.1203 27.1662C62.4487 27.5102 62.7693 27.8543 63.0821 28.1984C63.6921 28.8709 64.2629 29.5747 64.7947 30.3097L70.0965 25.8524L67.4456 22.7089L62.1203 27.1662Z" fill="white"/>
<path d="M68.2206 37.5355L75.3523 34.4154C74.8596 32.9374 74.3904 31.6237 73.5694 29.8877L66.4611 33.0078C67.3057 34.7438 67.7514 36.0575 68.2206 37.5355Z" fill="white"/>
<path d="M23.3654 51.8224C24.1396 53.6523 24.7964 54.8722 25.5706 56.2094L30.7552 53.9338C29.8168 52.6201 29.0661 51.1421 28.5265 49.5703L23.3654 51.8224Z" fill="white"/>
<path d="M67.1179 38.0044C66.6722 36.5264 66.2265 35.2127 65.3819 33.4532L60.2678 35.7054C61.0185 37.1364 61.605 38.6613 61.9568 40.28L67.1179 38.0044Z" fill="white"/>
<path d="M0.891785 61.6745L2.76855 66.2022L14.2403 61.1584C13.5365 59.8212 12.9031 58.5779 12.1054 56.7715L0.891785 61.6745Z" fill="white"/>
<path d="M78.2841 33.1487L92.4067 26.9788L90.3423 22.5215L76.5012 28.5975C76.5481 28.6679 76.6888 28.9494 76.8061 29.2309C77.2284 30.2397 77.6976 31.4596 78.2841 33.1487Z" fill="white"/>
<path d="M22.2863 52.291L15.0139 55.4815C15.8115 57.2879 16.4683 58.5312 17.1956 59.8684L24.4915 56.6779C23.7408 55.3407 23.0605 54.1209 22.2863 52.291Z" fill="white"/>
<path d="M2.97936 107.328H2.62747C2.59619 107.328 2.56491 107.335 2.53363 107.351C2.51799 107.382 2.51017 107.414 2.51017 107.445V109.298C2.43197 109.314 2.32249 109.329 2.18174 109.345C2.05662 109.345 1.8924 109.345 1.68909 109.345C1.53269 109.345 1.39193 109.322 1.26681 109.275C1.12606 109.212 1.00876 109.118 0.91492 108.993C0.805442 108.884 0.727244 108.735 0.680325 108.547C0.617766 108.36 0.586488 108.125 0.586488 107.844V106.976C0.586488 106.694 0.617766 106.452 0.680325 106.248C0.742884 106.061 0.828903 105.912 0.938381 105.803C1.04786 105.678 1.17298 105.592 1.31373 105.545C1.45449 105.513 1.59525 105.498 1.736 105.498C1.87676 105.498 2.00188 105.498 2.11136 105.498C2.22084 105.498 2.33031 105.498 2.43979 105.498C2.53363 105.498 2.61965 105.506 2.69785 105.521C2.79168 105.521 2.88552 105.521 2.97936 105.521H3.00282C3.06538 105.537 3.09666 105.521 3.09666 105.474V105.146C3.09666 105.115 3.08102 105.091 3.04974 105.075C3.0341 105.06 3.01064 105.052 2.97936 105.052C2.85424 105.021 2.69003 104.997 2.48671 104.982C2.29904 104.966 2.0488 104.958 1.736 104.958C1.53269 104.958 1.32937 104.989 1.12606 105.052C0.907102 105.115 0.719424 105.224 0.563027 105.38C0.390991 105.537 0.258054 105.74 0.164216 105.99C0.0547382 106.256 0 106.585 0 106.976V107.867C0 108.227 0.0469205 108.54 0.140759 108.806C0.250236 109.056 0.383173 109.267 0.53957 109.439C0.695967 109.595 0.875824 109.705 1.07914 109.767C1.28246 109.846 1.48577 109.885 1.68909 109.885C2.00188 109.885 2.25211 109.877 2.43979 109.861C2.64311 109.83 2.82296 109.806 2.97936 109.791C3.05756 109.775 3.09666 109.728 3.09666 109.65V107.445C3.09666 107.414 3.08884 107.382 3.0732 107.351C3.04192 107.335 3.01064 107.328 2.97936 107.328Z" fill="white"/>
<path fill-rule="evenodd" clip-rule="evenodd" d="M6.70963 107.116C6.77219 107.304 6.80347 107.507 6.80347 107.726V108.078C6.80347 108.172 6.76437 108.219 6.68617 108.219H4.50443V108.313C4.50443 108.704 4.58263 108.977 4.73903 109.134C4.87979 109.306 5.10656 109.392 5.41936 109.392C5.60703 109.392 5.81035 109.384 6.0293 109.368C6.23262 109.353 6.41248 109.329 6.56887 109.298H6.59233C6.62361 109.298 6.64707 109.306 6.66271 109.321C6.69399 109.337 6.70963 109.361 6.70963 109.392V109.626C6.70963 109.673 6.70181 109.705 6.68617 109.72C6.67053 109.752 6.63143 109.767 6.56887 109.767C6.3812 109.798 6.20134 109.83 6.0293 109.861C5.84163 109.877 5.63831 109.884 5.41936 109.884C5.23168 109.884 5.044 109.861 4.85633 109.814C4.68429 109.767 4.52789 109.681 4.38714 109.556C4.24638 109.431 4.1369 109.267 4.0587 109.063C3.98051 108.876 3.94141 108.625 3.94141 108.313V107.726C3.94141 107.257 4.0587 106.889 4.2933 106.624C4.54353 106.342 4.90324 106.201 5.37243 106.201C5.60703 106.201 5.81817 106.24 6.00584 106.319C6.17788 106.397 6.32646 106.498 6.45157 106.624C6.56105 106.749 6.64707 106.913 6.70963 107.116ZM6.24044 107.726C6.24044 107.366 6.17006 107.108 6.0293 106.952C5.88855 106.796 5.66959 106.717 5.37243 106.717C5.09092 106.717 4.87979 106.796 4.73903 106.952C4.58263 107.124 4.50443 107.382 4.50443 107.726V107.797H6.24044V107.726Z" fill="white"/>
<path d="M9.19584 106.201C9.00816 106.201 8.83612 106.233 8.67973 106.295C8.52333 106.342 8.35129 106.412 8.16361 106.506V106.389C8.16361 106.358 8.14798 106.326 8.1167 106.295C8.10106 106.264 8.07759 106.248 8.04632 106.248H7.71788C7.6866 106.248 7.65533 106.264 7.62405 106.295C7.60841 106.326 7.60059 106.358 7.60059 106.389V109.697C7.60059 109.744 7.60841 109.775 7.62405 109.791C7.65533 109.822 7.6866 109.838 7.71788 109.838H8.02286C8.06978 109.838 8.10106 109.822 8.1167 109.791C8.14798 109.775 8.16361 109.744 8.16361 109.697V106.975C8.32001 106.897 8.46859 106.835 8.60935 106.788C8.76575 106.741 8.91432 106.717 9.05508 106.717C9.16456 106.717 9.26621 106.733 9.36005 106.764C9.45389 106.78 9.53209 106.819 9.59465 106.882C9.64156 106.96 9.68066 107.054 9.71194 107.163C9.74322 107.273 9.75887 107.406 9.75887 107.562V109.697C9.75887 109.744 9.7745 109.775 9.80578 109.791C9.82142 109.822 9.8527 109.838 9.89962 109.838H10.2046C10.2359 109.838 10.2672 109.822 10.2984 109.791C10.3141 109.775 10.3219 109.744 10.3219 109.697V107.562C10.3219 107.124 10.2359 106.788 10.0638 106.553C9.87616 106.319 9.58683 106.201 9.19584 106.201Z" fill="white"/>
<path fill-rule="evenodd" clip-rule="evenodd" d="M13.8884 107.116C13.9509 107.304 13.9822 107.507 13.9822 107.726V108.078C13.9822 108.172 13.9353 108.219 13.8414 108.219H11.6832V108.313C11.6832 108.704 11.7536 108.977 11.8943 109.134C12.0507 109.306 12.2775 109.392 12.5746 109.392C12.7623 109.392 12.9656 109.384 13.1846 109.368C13.4035 109.353 13.5912 109.329 13.7476 109.298H13.7711C13.8024 109.298 13.8258 109.306 13.8414 109.321C13.8571 109.337 13.8649 109.361 13.8649 109.392V109.626C13.8649 109.673 13.8571 109.705 13.8414 109.72C13.8258 109.752 13.7945 109.767 13.7476 109.767C13.5599 109.798 13.3723 109.83 13.1846 109.861C12.9969 109.877 12.7936 109.884 12.5746 109.884C12.387 109.884 12.2071 109.861 12.0351 109.814C11.863 109.767 11.7066 109.681 11.5659 109.556C11.4251 109.431 11.3156 109.267 11.2374 109.063C11.1436 108.876 11.0967 108.625 11.0967 108.313V107.726C11.0967 107.257 11.2218 106.889 11.472 106.624C11.7223 106.342 12.082 106.201 12.5512 106.201C12.7858 106.201 12.9891 106.24 13.1611 106.319C13.3488 106.397 13.4974 106.498 13.6069 106.624C13.732 106.749 13.8258 106.913 13.8884 107.116ZM13.3957 107.726C13.3957 107.366 13.3253 107.108 13.1846 106.952C13.0438 106.796 12.8327 106.717 12.5512 106.717C12.2697 106.717 12.0507 106.796 11.8943 106.952C11.7536 107.124 11.6832 107.382 11.6832 107.726V107.797H13.3957V107.726Z" fill="white"/>
<path d="M16.234 106.201C16.0776 106.201 15.929 106.225 15.7883 106.272C15.6319 106.334 15.4755 106.42 15.3191 106.53V106.389C15.3191 106.358 15.3034 106.326 15.2722 106.295C15.2565 106.264 15.2331 106.248 15.2018 106.248H14.8733C14.8421 106.248 14.8186 106.264 14.803 106.295C14.7717 106.326 14.756 106.358 14.756 106.389V109.697C14.756 109.744 14.7717 109.775 14.803 109.791C14.8186 109.822 14.8421 109.837 14.8733 109.837H15.2018C15.2331 109.837 15.2643 109.822 15.2956 109.791C15.3269 109.775 15.3425 109.744 15.3425 109.697V106.975C15.4989 106.882 15.6475 106.811 15.7883 106.764C15.929 106.733 16.0776 106.717 16.234 106.717C16.3278 106.717 16.3747 106.678 16.3747 106.6V106.319C16.3747 106.24 16.3278 106.201 16.234 106.201Z" fill="white"/>
<path fill-rule="evenodd" clip-rule="evenodd" d="M19.0022 106.53C19.2056 106.749 19.3072 107.054 19.3072 107.445V109.697C19.3072 109.744 19.2916 109.775 19.2603 109.791C19.2447 109.822 19.2134 109.837 19.1665 109.837H18.8849C18.838 109.837 18.8067 109.822 18.7911 109.791C18.7598 109.775 18.7442 109.744 18.7442 109.697V109.556C18.5878 109.65 18.4236 109.728 18.2515 109.791C18.0951 109.853 17.9231 109.884 17.7354 109.884C17.5947 109.884 17.4617 109.869 17.3366 109.837C17.2115 109.806 17.102 109.744 17.0082 109.65C16.9143 109.572 16.8361 109.47 16.7736 109.345C16.711 109.204 16.6797 109.032 16.6797 108.829V108.758C16.6797 108.571 16.711 108.414 16.7736 108.289C16.8205 108.164 16.9065 108.055 17.0316 107.961C17.1568 107.867 17.321 107.797 17.5243 107.75C17.712 107.718 17.9544 107.703 18.2515 107.703H18.7207V107.445C18.7207 107.163 18.6738 106.968 18.58 106.858C18.4705 106.749 18.2906 106.694 18.0404 106.694C17.8214 106.694 17.6338 106.702 17.4774 106.717C17.321 106.733 17.1724 106.741 17.0316 106.741H17.0082C16.9769 106.741 16.9456 106.741 16.9143 106.741C16.8987 106.725 16.8909 106.694 16.8909 106.647V106.412C16.8909 106.35 16.9378 106.311 17.0316 106.295C17.1568 106.279 17.2975 106.256 17.4539 106.225C17.6259 106.209 17.8214 106.201 18.0404 106.201C18.4939 106.201 18.8146 106.311 19.0022 106.53ZM18.7207 108.101H18.2515C18.0482 108.101 17.884 108.117 17.7589 108.148C17.6338 108.164 17.5321 108.195 17.4539 108.242C17.3757 108.305 17.321 108.375 17.2897 108.453C17.2584 108.532 17.2428 108.625 17.2428 108.735V108.829C17.2428 109.063 17.2975 109.22 17.407 109.298C17.5165 109.376 17.665 109.415 17.8527 109.415C18.0091 109.415 18.1577 109.392 18.2985 109.345C18.4236 109.298 18.5643 109.235 18.7207 109.157V108.101Z" fill="white"/>
<path d="M20.7143 104.935H20.3624C20.3311 104.935 20.3077 104.95 20.292 104.982C20.2608 104.997 20.2451 105.029 20.2451 105.075V109.697C20.2451 109.744 20.2608 109.775 20.292 109.791C20.3077 109.822 20.3311 109.838 20.3624 109.838H20.7143C20.7456 109.838 20.7691 109.822 20.7847 109.791C20.816 109.775 20.8316 109.744 20.8316 109.697V105.075C20.8316 105.029 20.816 104.997 20.7847 104.982C20.7691 104.95 20.7456 104.935 20.7143 104.935Z" fill="white"/>
<path d="M26.1109 104.982C26.0327 104.982 25.9467 104.982 25.8528 104.982C25.7434 104.966 25.6339 104.958 25.5244 104.958C25.3993 104.958 25.282 104.958 25.1725 104.958C25.0474 104.958 24.9379 104.958 24.8441 104.958C24.3749 104.958 24.0308 105.052 23.8119 105.24C23.5773 105.427 23.46 105.732 23.46 106.155V108.665C23.46 109.103 23.5773 109.415 23.8119 109.603C24.0308 109.791 24.3749 109.885 24.8441 109.885H25.1725C25.282 109.885 25.3993 109.885 25.5244 109.885C25.6495 109.869 25.759 109.861 25.8528 109.861C25.9623 109.861 26.0483 109.861 26.1109 109.861C26.1265 109.846 26.1422 109.83 26.1578 109.814C26.1734 109.799 26.1813 109.783 26.1813 109.767V109.415C26.1813 109.369 26.1578 109.345 26.1109 109.345H24.8441C24.672 109.345 24.5313 109.337 24.4218 109.322C24.328 109.29 24.2498 109.251 24.1872 109.204C24.1246 109.142 24.0855 109.071 24.0699 108.993C24.0543 108.899 24.0464 108.79 24.0464 108.665V107.562H26.0405C26.0718 107.562 26.1031 107.554 26.1343 107.539C26.1656 107.507 26.1813 107.476 26.1813 107.445V107.187C26.1813 107.156 26.1656 107.132 26.1343 107.116C26.1031 107.085 26.0718 107.07 26.0405 107.07H24.0464V106.155C24.0464 106.045 24.0543 105.943 24.0699 105.85C24.0855 105.771 24.1246 105.701 24.1872 105.638C24.2498 105.592 24.328 105.552 24.4218 105.521C24.5313 105.506 24.672 105.498 24.8441 105.498H26.1109C26.1578 105.498 26.1813 105.466 26.1813 105.404V105.075C26.1813 105.06 26.1734 105.044 26.1578 105.029C26.1422 105.013 26.1265 104.997 26.1109 104.982Z" fill="white"/>
<path d="M28.5738 106.201C28.3861 106.201 28.2141 106.233 28.0577 106.295C27.9013 106.342 27.7292 106.412 27.5415 106.506V106.389C27.5415 106.358 27.5337 106.326 27.5181 106.295C27.4868 106.264 27.4555 106.248 27.4242 106.248H27.0958C27.0645 106.248 27.0333 106.264 27.002 106.295C26.9863 106.326 26.9785 106.358 26.9785 106.389V109.697C26.9785 109.744 26.9863 109.775 27.002 109.791C27.0333 109.822 27.0645 109.837 27.0958 109.837H27.4242C27.4555 109.837 27.4868 109.822 27.5181 109.791C27.5337 109.775 27.5415 109.744 27.5415 109.697V106.975C27.6979 106.897 27.8465 106.835 27.9873 106.788C28.1437 106.741 28.2923 106.717 28.433 106.717C28.5425 106.717 28.6441 106.733 28.738 106.764C28.8318 106.78 28.91 106.819 28.9726 106.882C29.0351 106.96 29.0742 107.054 29.0899 107.163C29.1212 107.273 29.1368 107.406 29.1368 107.562V109.697C29.1368 109.744 29.1524 109.775 29.1837 109.791C29.215 109.822 29.2463 109.837 29.2775 109.837H29.5825C29.6138 109.837 29.6451 109.822 29.6764 109.791C29.7076 109.775 29.7233 109.744 29.7233 109.697V107.562C29.7233 107.124 29.6294 106.788 29.4418 106.553C29.2697 106.319 28.9804 106.201 28.5738 106.201Z" fill="white"/>
<path d="M32.2334 109.415H31.8815C31.7407 109.415 31.6469 109.392 31.6 109.345C31.553 109.298 31.5296 109.181 31.5296 108.993V106.741H32.2334C32.2646 106.741 32.2881 106.725 32.3037 106.694C32.335 106.678 32.3507 106.647 32.3507 106.6V106.389C32.3507 106.358 32.335 106.326 32.3037 106.295C32.2881 106.264 32.2646 106.248 32.2334 106.248H31.5296V105.544C31.5296 105.513 31.5139 105.49 31.4827 105.474C31.467 105.443 31.4436 105.427 31.4123 105.427L31.0604 105.497C30.9822 105.497 30.9431 105.537 30.9431 105.615V106.248H30.3097C30.2315 106.248 30.1924 106.287 30.1924 106.365V106.553C30.1924 106.616 30.2315 106.655 30.3097 106.67L30.9431 106.741V109.016C30.9431 109.188 30.9587 109.329 30.99 109.439C31.0369 109.564 31.0917 109.658 31.1542 109.72C31.2324 109.783 31.3263 109.822 31.4357 109.837C31.5452 109.869 31.6782 109.884 31.8345 109.884C31.8971 109.884 31.9675 109.877 32.0457 109.861C32.1239 109.861 32.1943 109.853 32.2568 109.837C32.335 109.837 32.3741 109.806 32.3741 109.744V109.509C32.3741 109.446 32.3272 109.415 32.2334 109.415Z" fill="white"/>
<path fill-rule="evenodd" clip-rule="evenodd" d="M35.6354 107.116C35.698 107.304 35.7292 107.507 35.7292 107.726V108.078C35.7292 108.172 35.6901 108.219 35.6119 108.219H33.4302V108.313C33.4302 108.704 33.5084 108.977 33.6648 109.134C33.8212 109.306 34.048 109.392 34.3451 109.392C34.5328 109.392 34.7361 109.384 34.9551 109.368C35.1584 109.353 35.3383 109.329 35.4947 109.298H35.5416C35.5572 109.298 35.5807 109.306 35.6119 109.321C35.6276 109.337 35.6354 109.361 35.6354 109.392V109.626C35.6354 109.673 35.6276 109.705 35.6119 109.72C35.5963 109.752 35.5572 109.767 35.4947 109.767C35.307 109.798 35.1271 109.83 34.9551 109.861C34.7674 109.877 34.5641 109.884 34.3451 109.884C34.1575 109.884 33.9698 109.861 33.7821 109.814C33.6101 109.767 33.4537 109.681 33.3129 109.556C33.1878 109.431 33.0783 109.267 32.9845 109.063C32.9063 108.876 32.8672 108.625 32.8672 108.313V107.726C32.8672 107.257 32.9923 106.889 33.2425 106.624C33.4771 106.342 33.829 106.201 34.2982 106.201C34.5328 106.201 34.7439 106.24 34.9316 106.319C35.1037 106.397 35.2522 106.498 35.3774 106.624C35.4868 106.749 35.5728 106.913 35.6354 107.116ZM35.1662 107.726C35.1662 107.366 35.0958 107.108 34.9551 106.952C34.8143 106.796 34.5954 106.717 34.2982 106.717C34.0167 106.717 33.8056 106.796 33.6648 106.952C33.5084 107.124 33.4302 107.382 33.4302 107.726V107.797H35.1662V107.726Z" fill="white"/>
<path d="M37.9809 106.201C37.8402 106.201 37.6916 106.225 37.5352 106.272C37.3944 106.334 37.238 106.42 37.066 106.53V106.389C37.066 106.358 37.0582 106.326 37.0425 106.295C37.0113 106.264 36.98 106.248 36.9487 106.248H36.6437C36.6124 106.248 36.5812 106.264 36.5499 106.295C36.5342 106.326 36.5264 106.358 36.5264 106.389V109.697C36.5264 109.744 36.5342 109.775 36.5499 109.791C36.5812 109.822 36.6124 109.837 36.6437 109.837H36.9722C37.0034 109.837 37.0269 109.822 37.0425 109.791C37.0738 109.775 37.0895 109.744 37.0895 109.697V106.975C37.2615 106.882 37.4179 106.811 37.5586 106.764C37.6994 106.733 37.8402 106.717 37.9809 106.717C38.0748 106.717 38.1217 106.678 38.1217 106.6V106.319C38.1217 106.24 38.0748 106.201 37.9809 106.201Z" fill="white"/>
<path d="M40.5146 109.415H40.1392C40.0141 109.415 39.9281 109.392 39.8811 109.345C39.8186 109.298 39.7873 109.181 39.7873 108.993V106.741H40.4911C40.5224 106.741 40.5536 106.725 40.5849 106.694C40.6162 106.678 40.6319 106.647 40.6319 106.6V106.389C40.6319 106.358 40.6162 106.326 40.5849 106.295C40.5536 106.264 40.5224 106.248 40.4911 106.248H39.7873V105.544C39.7873 105.513 39.7795 105.49 39.7638 105.474C39.7482 105.443 39.7247 105.427 39.6935 105.427H39.67L39.3416 105.497C39.2634 105.497 39.2243 105.537 39.2243 105.615V106.248H38.5909C38.5127 106.248 38.4736 106.287 38.4736 106.365V106.553C38.4736 106.616 38.5127 106.655 38.5909 106.67L39.2243 106.741V109.016C39.2243 109.188 39.2399 109.329 39.2712 109.439C39.3181 109.564 39.3729 109.658 39.4354 109.72C39.5136 109.783 39.6074 109.822 39.7169 109.837C39.8264 109.869 39.9593 109.884 40.1157 109.884C40.1627 109.884 40.2252 109.877 40.3034 109.861C40.3816 109.861 40.4598 109.853 40.538 109.837C40.6162 109.837 40.6553 109.806 40.6553 109.744V109.509C40.6553 109.446 40.6084 109.415 40.5146 109.415Z" fill="white"/>
<path fill-rule="evenodd" clip-rule="evenodd" d="M43.4475 106.53C43.6508 106.749 43.7525 107.054 43.7525 107.445V109.697C43.7525 109.744 43.7368 109.775 43.7055 109.791C43.6743 109.822 43.643 109.838 43.6117 109.838H43.3067C43.2755 109.838 43.252 109.822 43.2364 109.791C43.2051 109.775 43.1894 109.744 43.1894 109.697V109.556C43.033 109.65 42.8688 109.728 42.6968 109.791C42.5404 109.853 42.3684 109.884 42.1807 109.884C42.0399 109.884 41.907 109.869 41.7819 109.838C41.6568 109.806 41.5473 109.744 41.4534 109.65C41.344 109.572 41.2658 109.47 41.2188 109.345C41.1563 109.204 41.125 109.032 41.125 108.829V108.758C41.125 108.571 41.1485 108.414 41.1954 108.289C41.2579 108.164 41.3518 108.055 41.4769 107.961C41.602 107.867 41.7584 107.797 41.9461 107.75C42.1494 107.718 42.3996 107.703 42.6968 107.703H43.166V107.445C43.166 107.163 43.1191 106.968 43.0252 106.858C42.9157 106.749 42.7359 106.694 42.4857 106.694C42.2667 106.694 42.079 106.702 41.9226 106.717C41.7662 106.733 41.6177 106.741 41.4769 106.741H41.4534C41.4222 106.741 41.3909 106.741 41.3596 106.741C41.344 106.725 41.3361 106.694 41.3361 106.647V106.412C41.3361 106.35 41.3831 106.311 41.4769 106.295C41.602 106.28 41.7428 106.256 41.8992 106.225C42.0556 106.209 42.2511 106.201 42.4857 106.201C42.9236 106.201 43.2442 106.311 43.4475 106.53ZM43.166 108.102H42.6968C42.4935 108.102 42.3293 108.117 42.2041 108.148C42.079 108.164 41.9774 108.195 41.8992 108.242C41.821 108.305 41.7662 108.375 41.7349 108.453C41.7037 108.532 41.688 108.625 41.688 108.735V108.829C41.688 109.063 41.7428 109.22 41.8522 109.298C41.9617 109.376 42.1103 109.415 42.298 109.415C42.4544 109.415 42.5951 109.392 42.7203 109.345C42.861 109.298 43.0096 109.235 43.166 109.157V108.102Z" fill="white"/>
<path d="M45.136 106.248H44.831C44.7998 106.248 44.7685 106.264 44.7372 106.295C44.7216 106.326 44.7137 106.358 44.7137 106.389V109.697C44.7137 109.744 44.7216 109.775 44.7372 109.791C44.7685 109.822 44.7998 109.838 44.831 109.838H45.136C45.1829 109.838 45.2142 109.822 45.2299 109.791C45.2611 109.775 45.2768 109.744 45.2768 109.697V106.389C45.2768 106.358 45.2611 106.326 45.2299 106.295C45.2142 106.264 45.1829 106.248 45.136 106.248Z" fill="white"/>
<path d="M45.1599 104.911H44.8313C44.8 104.911 44.7687 104.919 44.7374 104.935C44.7061 104.966 44.6904 104.997 44.6904 105.029V105.545C44.6904 105.592 44.7061 105.623 44.7374 105.639C44.7687 105.67 44.8 105.686 44.8313 105.686H45.1599C45.1912 105.686 45.2225 105.67 45.2538 105.639C45.2851 105.623 45.3008 105.592 45.3008 105.545V105.029C45.3008 104.997 45.2851 104.966 45.2538 104.935C45.2225 104.919 45.1912 104.911 45.1599 104.911Z" fill="white"/>
<path d="M47.857 106.201C47.6537 106.201 47.4738 106.233 47.3174 106.295C47.161 106.342 46.989 106.412 46.8013 106.506V106.389C46.8013 106.358 46.7935 106.326 46.7778 106.295C46.7466 106.264 46.7153 106.248 46.684 106.248H46.3556C46.3243 106.248 46.3008 106.264 46.2852 106.295C46.2539 106.326 46.2383 106.358 46.2383 106.389V109.697C46.2383 109.744 46.2539 109.775 46.2852 109.791C46.3008 109.822 46.3243 109.838 46.3556 109.838H46.684C46.7153 109.838 46.7466 109.822 46.7778 109.791C46.7935 109.775 46.8013 109.744 46.8013 109.697V106.975C46.9577 106.897 47.1141 106.835 47.2705 106.788C47.4113 106.741 47.552 106.717 47.6928 106.717C47.8179 106.717 47.9274 106.733 48.0212 106.764C48.0994 106.78 48.1698 106.819 48.2323 106.882C48.2949 106.96 48.3418 107.054 48.3731 107.163C48.3887 107.273 48.3966 107.406 48.3966 107.562V109.697C48.3966 109.744 48.4122 109.775 48.4435 109.791C48.4748 109.822 48.506 109.838 48.5373 109.838H48.8423C48.8892 109.838 48.9205 109.822 48.9361 109.791C48.9674 109.775 48.983 109.744 48.983 109.697V107.562C48.983 107.124 48.8892 106.788 48.7015 106.553C48.5295 106.319 48.248 106.201 47.857 106.201Z" fill="white"/>
<path d="M53.8631 106.459C53.7693 106.365 53.6598 106.303 53.5347 106.272C53.4096 106.225 53.2688 106.201 53.1124 106.201C52.956 106.201 52.784 106.225 52.5963 106.272C52.4086 106.319 52.2209 106.381 52.0333 106.459C51.9551 106.365 51.8612 106.303 51.7518 106.272C51.6423 106.225 51.525 106.201 51.3999 106.201C51.2122 106.201 51.0402 106.233 50.8838 106.295C50.7117 106.358 50.5631 106.428 50.438 106.506V106.389C50.438 106.358 50.4302 106.326 50.4146 106.295C50.3833 106.264 50.352 106.248 50.3207 106.248H49.9923C49.961 106.248 49.9297 106.264 49.8985 106.295C49.8828 106.326 49.875 106.358 49.875 106.389V109.697C49.875 109.744 49.8828 109.775 49.8985 109.791C49.9141 109.822 49.9376 109.837 49.9688 109.837H50.3207C50.352 109.837 50.3833 109.822 50.4146 109.791C50.4302 109.775 50.438 109.744 50.438 109.697V106.952C50.5788 106.889 50.7195 106.835 50.8603 106.788C50.9854 106.725 51.1105 106.694 51.2356 106.694C51.3138 106.694 51.3842 106.71 51.4468 106.741C51.5093 106.756 51.5641 106.788 51.611 106.835C51.6579 106.882 51.6892 106.952 51.7048 107.046C51.7205 107.124 51.7283 107.241 51.7283 107.398V109.697C51.7283 109.744 51.7439 109.775 51.7752 109.791C51.7909 109.822 51.8143 109.837 51.8456 109.837H52.1975C52.2288 109.837 52.2522 109.822 52.2679 109.791C52.2991 109.775 52.3148 109.744 52.3148 109.697V107.398C52.3148 107.194 52.2913 107.022 52.2444 106.882C52.3695 106.835 52.5025 106.796 52.6432 106.764C52.7683 106.717 52.8935 106.694 53.0186 106.694C53.0968 106.694 53.175 106.71 53.2532 106.741C53.3157 106.756 53.3783 106.796 53.4408 106.858C53.4878 106.905 53.5269 106.975 53.5581 107.069C53.5894 107.163 53.6051 107.273 53.6051 107.398V109.697C53.6051 109.744 53.6207 109.775 53.652 109.791C53.6676 109.822 53.6911 109.837 53.7224 109.837H54.0508C54.0821 109.837 54.1133 109.822 54.1446 109.791C54.1603 109.775 54.1681 109.744 54.1681 109.697V107.398C54.1681 107.179 54.1446 106.991 54.0977 106.835C54.0352 106.678 53.957 106.553 53.8631 106.459Z" fill="white"/>
<path fill-rule="evenodd" clip-rule="evenodd" d="M57.7339 107.116C57.7964 107.304 57.8277 107.507 57.8277 107.726V108.078C57.8277 108.172 57.7808 108.219 57.687 108.219H55.5287V108.313C55.5287 108.704 55.5991 108.977 55.7398 109.134C55.8962 109.306 56.123 109.392 56.4201 109.392C56.6078 109.392 56.8111 109.384 57.0301 109.368C57.2491 109.353 57.4367 109.329 57.5931 109.298H57.6166C57.6479 109.298 57.6713 109.306 57.687 109.321C57.7026 109.337 57.7104 109.36 57.7104 109.392V109.626C57.7104 109.673 57.7026 109.705 57.687 109.72C57.6713 109.751 57.64 109.767 57.5931 109.767C57.4054 109.798 57.2178 109.83 57.0301 109.861C56.8424 109.877 56.6391 109.884 56.4201 109.884C56.2325 109.884 56.0526 109.861 55.8806 109.814C55.6929 109.767 55.5365 109.681 55.4114 109.556C55.2706 109.431 55.1611 109.267 55.083 109.063C54.9891 108.876 54.9422 108.625 54.9422 108.313V107.726C54.9422 107.257 55.0673 106.889 55.3175 106.624C55.5678 106.342 55.9275 106.201 56.3967 106.201C56.6313 106.201 56.8346 106.24 57.0066 106.319C57.1943 106.397 57.3429 106.498 57.4524 106.624C57.5775 106.749 57.6713 106.913 57.7339 107.116ZM57.2412 107.726C57.2412 107.366 57.1709 107.108 57.0301 106.952C56.8893 106.796 56.6782 106.717 56.3967 106.717C56.1152 106.717 55.8962 106.796 55.7398 106.952C55.5991 107.124 55.5287 107.382 55.5287 107.726V107.797H57.2412V107.726Z" fill="white"/>
<path d="M60.2205 106.201C60.0172 106.201 59.8373 106.233 59.6809 106.295C59.5245 106.342 59.3603 106.412 59.1883 106.506V106.389C59.1883 106.358 59.1727 106.326 59.1414 106.295C59.1101 106.264 59.0788 106.248 59.0475 106.248H58.7191C58.6878 106.248 58.6644 106.264 58.6487 106.295C58.6174 106.326 58.6018 106.358 58.6018 106.389V109.697C58.6018 109.744 58.6174 109.775 58.6487 109.791C58.6644 109.822 58.6878 109.837 58.7191 109.837H59.0475C59.0788 109.837 59.1101 109.822 59.1414 109.791C59.1727 109.775 59.1883 109.744 59.1883 109.697V106.975C59.3291 106.897 59.4776 106.835 59.634 106.788C59.7748 106.741 59.9155 106.717 60.0563 106.717C60.1814 106.717 60.2909 106.733 60.3847 106.764C60.4629 106.78 60.5333 106.819 60.5959 106.882C60.6584 106.96 60.7053 107.054 60.7366 107.163C60.7679 107.273 60.7835 107.406 60.7835 107.562V109.697C60.7835 109.744 60.7914 109.775 60.807 109.791C60.8383 109.822 60.8696 109.837 60.9008 109.837H61.2058C61.2527 109.837 61.284 109.822 61.2997 109.791C61.3309 109.775 61.3466 109.744 61.3466 109.697V107.562C61.3466 107.124 61.2527 106.788 61.0651 106.553C60.893 106.319 60.6115 106.201 60.2205 106.201Z" fill="white"/>
<path d="M63.8564 109.415H63.5045C63.3638 109.415 63.2699 109.392 63.223 109.345C63.1761 109.298 63.1526 109.18 63.1526 108.993V106.741H63.8564C63.8877 106.741 63.919 106.725 63.9502 106.694C63.9659 106.678 63.9737 106.647 63.9737 106.6V106.389C63.9737 106.357 63.9659 106.326 63.9502 106.295C63.919 106.264 63.8877 106.248 63.8564 106.248H63.1526V105.544C63.1526 105.513 63.1448 105.489 63.1292 105.474C63.0979 105.443 63.0744 105.427 63.0588 105.427H63.0353L62.6834 105.497C62.6052 105.497 62.5661 105.536 62.5661 105.615V106.248H61.9327C61.8545 106.248 61.8154 106.287 61.8154 106.365V106.553C61.8154 106.616 61.8545 106.655 61.9327 106.67L62.5661 106.741V109.016C62.5661 109.188 62.5896 109.329 62.6365 109.438C62.6678 109.564 62.7225 109.657 62.8007 109.72C62.8633 109.783 62.9493 109.822 63.0588 109.837C63.1683 109.869 63.3012 109.884 63.4576 109.884C63.5202 109.884 63.5905 109.876 63.6687 109.861C63.7469 109.861 63.8173 109.853 63.8799 109.837C63.9581 109.837 63.9972 109.806 63.9972 109.743V109.509C63.9972 109.446 63.9502 109.415 63.8564 109.415Z" fill="white"/>
<path fill-rule="evenodd" clip-rule="evenodd" d="M69.6978 109.697C69.6978 109.697 69.6978 109.713 69.6978 109.744C69.6978 109.806 69.6666 109.838 69.604 109.838H69.2052C69.1739 109.838 69.1504 109.83 69.1348 109.814C69.1192 109.783 69.1035 109.76 69.0879 109.744L68.6656 108.242H67L66.5777 109.744C66.5621 109.76 66.5464 109.783 66.5308 109.814C66.4995 109.83 66.4761 109.838 66.4604 109.838H66.0616C65.9991 109.838 65.9678 109.806 65.9678 109.744C65.9678 109.713 65.9678 109.697 65.9678 109.697L67.1642 105.451C67.1955 105.341 67.2346 105.255 67.2815 105.193C67.3284 105.13 67.3832 105.083 67.4457 105.052C67.5083 105.021 67.5708 104.997 67.6334 104.982C67.7116 104.966 67.782 104.958 67.8445 104.958C67.9071 104.958 67.9696 104.966 68.0322 104.982C68.0948 104.982 68.1573 105.005 68.2199 105.052C68.2824 105.083 68.3372 105.13 68.3841 105.193C68.431 105.255 68.4701 105.341 68.5014 105.451L69.6978 109.697ZM68.5483 107.726L67.9618 105.592C67.9306 105.513 67.8836 105.474 67.8211 105.474C67.7585 105.474 67.7194 105.513 67.7038 105.592L67.0938 107.726H68.5483Z" fill="white"/>
<path d="M72.8882 106.248H72.5598C72.5285 106.248 72.505 106.264 72.4894 106.295C72.4581 106.326 72.4425 106.358 72.4425 106.389V109.134C72.2861 109.196 72.1375 109.251 71.9968 109.298C71.8404 109.36 71.6918 109.392 71.551 109.392C71.4259 109.392 71.3242 109.376 71.246 109.345C71.1522 109.314 71.074 109.267 71.0114 109.204C70.9489 109.142 70.9098 109.056 70.8942 108.946C70.8629 108.821 70.8472 108.68 70.8472 108.524V106.389C70.8472 106.358 70.8316 106.326 70.8003 106.295C70.7847 106.264 70.7534 106.248 70.7065 106.248H70.4015C70.3702 106.248 70.3389 106.264 70.3077 106.295C70.2764 106.326 70.2607 106.358 70.2607 106.389V108.524C70.2607 108.962 70.3546 109.298 70.5423 109.533C70.7143 109.767 71.0036 109.884 71.4103 109.884C71.5979 109.884 71.77 109.861 71.9264 109.814C72.0828 109.751 72.2548 109.673 72.4425 109.579V109.697C72.4425 109.744 72.4503 109.775 72.4659 109.791C72.4972 109.822 72.5285 109.838 72.5598 109.838H72.8882C72.9195 109.838 72.9508 109.822 72.982 109.791C72.9977 109.775 73.0055 109.744 73.0055 109.697V106.389C73.0055 106.358 72.9977 106.326 72.982 106.295C72.9508 106.264 72.9195 106.248 72.8882 106.248Z" fill="white"/>
<path d="M75.6569 109.415H75.3051C75.1643 109.415 75.0705 109.392 75.0235 109.345C74.9766 109.298 74.9532 109.181 74.9532 108.993V106.741H75.6569C75.6882 106.741 75.7195 106.725 75.7508 106.694C75.7664 106.678 75.7742 106.647 75.7742 106.6V106.389C75.7742 106.358 75.7664 106.326 75.7508 106.295C75.7195 106.264 75.6882 106.248 75.6569 106.248H74.9532V105.544C74.9532 105.513 74.9375 105.49 74.9062 105.474C74.8906 105.443 74.875 105.427 74.8593 105.427H74.8359L74.484 105.497C74.4058 105.497 74.3667 105.537 74.3667 105.615V106.248H73.7333C73.6551 106.248 73.616 106.287 73.616 106.365V106.553C73.616 106.616 73.6551 106.655 73.7333 106.67L74.3667 106.741V109.016C74.3667 109.188 74.3901 109.329 74.4371 109.439C74.4683 109.564 74.5231 109.658 74.6013 109.72C74.6638 109.783 74.7498 109.822 74.8593 109.837C74.9688 109.869 75.1017 109.884 75.2581 109.884C75.3207 109.884 75.3911 109.877 75.4693 109.861C75.5475 109.861 75.6178 109.853 75.6804 109.837C75.7586 109.837 75.7977 109.806 75.7977 109.744V109.509C75.7977 109.446 75.7508 109.415 75.6569 109.415Z" fill="white"/>
<path d="M78.8236 106.53C78.7141 106.42 78.589 106.342 78.4482 106.295C78.3075 106.233 78.1511 106.202 77.979 106.202C77.8383 106.202 77.674 106.217 77.4864 106.248C77.2987 106.295 77.1266 106.35 76.9702 106.413V105.075C76.9702 105.044 76.9624 105.013 76.9468 104.982C76.9155 104.95 76.8842 104.935 76.8529 104.935H76.5245C76.4932 104.935 76.462 104.95 76.4307 104.982C76.415 105.013 76.4072 105.044 76.4072 105.075V109.697C76.4072 109.744 76.415 109.775 76.4307 109.791C76.462 109.822 76.4932 109.838 76.5245 109.838H76.8529C76.8842 109.838 76.9155 109.822 76.9468 109.791C76.9624 109.775 76.9702 109.744 76.9702 109.697V106.882C77.0484 106.866 77.1266 106.843 77.2048 106.811C77.2987 106.796 77.3847 106.78 77.4629 106.765C77.5411 106.749 77.6193 106.733 77.6975 106.718C77.7601 106.718 77.8226 106.718 77.8852 106.718C78.0885 106.718 78.2527 106.772 78.3778 106.882C78.5029 107.007 78.5655 107.234 78.5655 107.562V109.697C78.5655 109.744 78.5811 109.775 78.6124 109.791C78.6437 109.822 78.675 109.838 78.7063 109.838H79.0112C79.0425 109.838 79.0738 109.822 79.1051 109.791C79.1364 109.775 79.152 109.744 79.152 109.697V107.562C79.152 107.328 79.1207 107.124 79.0581 106.952C78.9956 106.78 78.9174 106.639 78.8236 106.53Z" fill="white"/>
<path fill-rule="evenodd" clip-rule="evenodd" d="M82.7182 107.14C82.7808 107.343 82.8121 107.562 82.8121 107.797V108.289C82.8121 108.524 82.7808 108.743 82.7182 108.946C82.6557 109.134 82.5618 109.298 82.4367 109.439C82.3272 109.579 82.1787 109.689 81.991 109.767C81.8033 109.845 81.5922 109.884 81.3576 109.884C81.123 109.884 80.9118 109.845 80.7242 109.767C80.5521 109.689 80.4036 109.579 80.2784 109.439C80.1533 109.298 80.0595 109.134 79.9969 108.946C79.9344 108.743 79.9031 108.524 79.9031 108.289V107.797C79.9031 107.562 79.9344 107.343 79.9969 107.14C80.0595 106.952 80.1533 106.788 80.2784 106.647C80.4036 106.506 80.5521 106.397 80.7242 106.319C80.9118 106.24 81.123 106.201 81.3576 106.201C81.5922 106.201 81.8033 106.24 81.991 106.319C82.1787 106.397 82.3272 106.506 82.4367 106.647C82.5618 106.788 82.6557 106.952 82.7182 107.14ZM82.249 107.797C82.249 107.468 82.1787 107.202 82.0379 106.999C81.8971 106.811 81.6704 106.717 81.3576 106.717C81.0604 106.717 80.8415 106.811 80.7007 106.999C80.5599 107.187 80.4896 107.452 80.4896 107.797V108.289C80.4896 108.633 80.5599 108.899 80.7007 109.087C80.8258 109.29 81.0448 109.392 81.3576 109.392C81.6704 109.392 81.8971 109.29 82.0379 109.087C82.1787 108.899 82.249 108.633 82.249 108.289V107.797Z" fill="white"/>
<path d="M85.0404 106.201C84.8997 106.201 84.7511 106.225 84.5947 106.272C84.4539 106.334 84.2975 106.42 84.1255 106.53V106.389C84.1255 106.358 84.1177 106.326 84.102 106.295C84.0708 106.264 84.0395 106.248 84.0082 106.248H83.7032C83.672 106.248 83.6407 106.264 83.6094 106.295C83.5938 106.326 83.5859 106.358 83.5859 106.389V109.697C83.5859 109.744 83.5938 109.775 83.6094 109.791C83.6407 109.822 83.672 109.838 83.7032 109.838H84.0317C84.063 109.838 84.0864 109.822 84.102 109.791C84.1333 109.775 84.149 109.744 84.149 109.697V106.975C84.321 106.882 84.4774 106.811 84.6182 106.764C84.7589 106.733 84.8997 106.717 85.0404 106.717C85.1343 106.717 85.1812 106.678 85.1812 106.6V106.319C85.1812 106.24 85.1343 106.201 85.0404 106.201Z" fill="white"/>
<path d="M86.3315 106.248H86.003C85.9718 106.248 85.9405 106.264 85.9092 106.295C85.8936 106.326 85.8857 106.358 85.8857 106.389V109.697C85.8857 109.744 85.8936 109.775 85.9092 109.791C85.9405 109.822 85.9718 109.838 86.003 109.838H86.3315C86.3628 109.838 86.3862 109.822 86.4019 109.791C86.4331 109.775 86.4488 109.744 86.4488 109.697V106.389C86.4488 106.358 86.4331 106.326 86.4019 106.295C86.3862 106.264 86.3628 106.248 86.3315 106.248Z" fill="white"/>
<path d="M86.3308 104.911H86.0022C85.9709 104.911 85.9396 104.919 85.9083 104.935C85.877 104.966 85.8613 104.997 85.8613 105.029V105.545C85.8613 105.592 85.877 105.623 85.9083 105.639C85.9396 105.67 85.9709 105.686 86.0022 105.686H86.3308C86.3621 105.686 86.3934 105.67 86.4247 105.639C86.456 105.623 86.4717 105.592 86.4717 105.545V105.029C86.4717 104.997 86.456 104.966 86.4247 104.935C86.3934 104.919 86.3621 104.911 86.3308 104.911Z" fill="white"/>
<path d="M89.1699 109.415H88.818C88.6929 109.415 88.599 109.392 88.5365 109.345C88.4896 109.298 88.4661 109.18 88.4661 108.993V106.741H89.1699C89.2012 106.741 89.2324 106.725 89.2637 106.694C89.2794 106.678 89.2872 106.647 89.2872 106.6V106.389C89.2872 106.357 89.2794 106.326 89.2637 106.295C89.2324 106.264 89.2012 106.248 89.1699 106.248H88.4661V105.544C88.4661 105.513 88.4583 105.489 88.4426 105.474C88.4114 105.443 88.3879 105.427 88.3723 105.427H88.3488L87.9969 105.497C87.9187 105.497 87.8796 105.536 87.8796 105.615V106.248H87.2697C87.1758 106.248 87.1289 106.287 87.1289 106.365V106.553C87.1289 106.616 87.1758 106.655 87.2697 106.67L87.8796 106.741V109.016C87.8796 109.188 87.9031 109.329 87.95 109.438C87.9813 109.564 88.036 109.657 88.1142 109.72C88.1768 109.783 88.2628 109.822 88.3723 109.837C88.4817 109.869 88.6147 109.884 88.7711 109.884C88.8336 109.884 88.904 109.876 88.9822 109.861C89.0604 109.861 89.1308 109.853 89.1933 109.837C89.2715 109.837 89.3106 109.806 89.3106 109.743V109.509C89.3106 109.446 89.2637 109.415 89.1699 109.415Z" fill="white"/>
<path d="M92.5947 106.248H92.2428C92.2115 106.248 92.1802 106.264 92.1489 106.295C92.1333 106.311 92.1177 106.326 92.102 106.342L91.3044 109.321H91.2106C91.1949 109.321 91.1715 109.314 91.1402 109.298C91.1245 109.282 91.1089 109.243 91.0933 109.181L90.3191 106.365C90.3035 106.334 90.2878 106.311 90.2722 106.295C90.2565 106.264 90.2331 106.248 90.2018 106.248H89.8499C89.7717 106.248 89.7326 106.287 89.7326 106.365C89.7326 106.381 89.7326 106.397 89.7326 106.412L90.6006 109.392C90.6319 109.486 90.6632 109.564 90.6944 109.626C90.7414 109.689 90.7805 109.736 90.8117 109.767C90.8587 109.798 90.9056 109.814 90.9525 109.814C90.9994 109.83 91.0463 109.838 91.0933 109.838H91.1871L91.1167 110.096C91.0854 110.221 91.0542 110.315 91.0229 110.377C90.976 110.455 90.929 110.51 90.8821 110.541C90.8352 110.588 90.7805 110.619 90.7179 110.635C90.6397 110.651 90.5537 110.659 90.4598 110.659C90.3973 110.659 90.3035 110.651 90.1783 110.635C90.0532 110.635 89.9594 110.627 89.8968 110.612H89.8734C89.7952 110.612 89.7561 110.651 89.7561 110.729V110.964C89.7561 110.995 89.7639 111.018 89.7795 111.034C89.8108 111.05 89.8421 111.057 89.8734 111.057C89.9516 111.089 90.0376 111.104 90.1314 111.104C90.2409 111.12 90.3426 111.128 90.4364 111.128C90.6241 111.128 90.7805 111.112 90.9056 111.081C91.0307 111.034 91.1402 110.979 91.234 110.917C91.3279 110.838 91.3982 110.737 91.4451 110.612C91.5077 110.487 91.5624 110.338 91.6094 110.166L92.6885 106.412C92.7041 106.397 92.712 106.381 92.712 106.365C92.712 106.287 92.6729 106.248 92.5947 106.248Z" fill="white"/>
<path d="M10.7919 101.486H10.4398C10.3772 101.486 10.3302 101.509 10.2989 101.556C10.252 101.587 10.2285 101.634 10.2285 101.697V102.19C10.2285 102.237 10.252 102.284 10.2989 102.331C10.3302 102.362 10.3772 102.378 10.4398 102.378H10.7919C10.8545 102.378 10.9093 102.362 10.9562 102.331C10.9875 102.284 11.0032 102.237 11.0032 102.19V101.697C11.0032 101.634 10.9875 101.587 10.9562 101.556C10.9093 101.509 10.8545 101.486 10.7919 101.486Z" fill="white"/>
<path d="M9.28995 102.379C9.35255 102.379 9.3995 102.363 9.4308 102.332C9.47775 102.285 9.50123 102.238 9.50123 102.191V101.698C9.50123 101.635 9.48557 101.588 9.45427 101.557C9.40732 101.51 9.35255 101.486 9.28995 101.486H8.93783C8.87523 101.486 8.82046 101.51 8.77351 101.557C8.74221 101.588 8.72656 101.635 8.72656 101.698V102.191C8.72656 102.238 8.74221 102.285 8.77351 102.332C8.82046 102.363 8.87523 102.379 8.93783 102.379H9.28995Z" fill="white"/>
<path d="M13.6537 95.3639H14.0527C14.1153 95.3639 14.1623 95.3482 14.1936 95.3169C14.2405 95.27 14.264 95.223 14.264 95.1761V94.6831C14.264 94.6205 14.2405 94.5657 14.1936 94.5188C14.1623 94.4875 14.1153 94.4718 14.0527 94.4718H13.6537C13.6067 94.4718 13.5598 94.4875 13.5128 94.5188C13.4659 94.5657 13.4424 94.6205 13.4424 94.6831V95.1761C13.4424 95.223 13.4659 95.27 13.5128 95.3169C13.5441 95.3482 13.5911 95.3639 13.6537 95.3639Z" fill="white"/>
<path fill-rule="evenodd" clip-rule="evenodd" d="M15.2955 100.594C15.0296 100.625 14.7793 100.641 14.5448 100.641C14.3102 100.641 14.0677 100.641 13.8175 100.641H11.1197C10.932 100.641 10.7287 100.625 10.5097 100.594C10.2908 100.547 10.1109 100.461 9.97014 100.336C9.81375 100.461 9.63389 100.547 9.43058 100.594C9.21162 100.625 9.01613 100.641 8.84409 100.641H4.33986C4.05834 100.641 3.82375 100.602 3.63607 100.524C3.4484 100.445 3.30764 100.305 3.2138 100.101C3.11996 100.242 2.96357 100.344 2.74461 100.406C2.52565 100.453 2.28324 100.477 2.01737 100.477H1.94699C1.36832 100.477 0.930407 100.32 0.633253 100.007C0.320459 99.6947 0.164062 99.2411 0.164062 98.6468V98.4122C0.164062 98.0525 0.226622 97.7475 0.351739 97.4973C0.461217 97.2314 0.625435 97.0203 0.844391 96.8639C1.04771 96.7075 1.29794 96.5902 1.59509 96.512C1.87661 96.4338 2.19722 96.3947 2.55693 96.3947C2.63513 96.3947 2.72115 96.3947 2.81499 96.3947C2.92447 96.4103 3.03394 96.4182 3.14342 96.4182C3.23726 96.4338 3.3311 96.4494 3.42494 96.4651C3.51878 96.4807 3.59697 96.4964 3.65953 96.512C3.72209 96.5276 3.76119 96.5511 3.77683 96.5824C3.79247 96.6137 3.80029 96.6528 3.80029 96.6997V99.2802C3.80029 99.5148 3.85503 99.6712 3.9645 99.7494C4.08962 99.812 4.24602 99.8433 4.43369 99.8433H8.96139C9.02395 99.8433 9.09432 99.8433 9.17252 99.8433C9.23508 99.8433 9.30546 99.8276 9.38366 99.7963C9.44621 99.7807 9.50096 99.7494 9.54788 99.7025C9.59479 99.6556 9.61825 99.593 9.61825 99.5148V97.0985C9.61825 97.0516 9.63389 97.0125 9.66517 96.9812C9.69645 96.9499 9.73555 96.9343 9.78247 96.9343H10.2047C10.2517 96.9343 10.2908 96.9499 10.322 96.9812C10.369 97.0125 10.3924 97.0516 10.3924 97.0985V99.6321C10.4081 99.679 10.4472 99.7181 10.5097 99.7494C10.5566 99.7807 10.6192 99.8042 10.6974 99.8198C10.7599 99.8354 10.8303 99.8433 10.9085 99.8433C10.9867 99.8433 11.0493 99.8433 11.0962 99.8433H12.2926C12.1832 99.7181 12.0893 99.5539 12.0111 99.3506C11.9329 99.1473 11.8938 98.8892 11.8938 98.5764V98.3418C11.8938 97.7319 12.0815 97.2471 12.4569 96.8874C12.8322 96.5433 13.3483 96.3712 14.0052 96.3712C14.2711 96.3712 14.5213 96.3791 14.7559 96.3947C15.0061 96.426 15.2173 96.4651 15.3893 96.512C15.4519 96.5276 15.491 96.5433 15.5066 96.5589C15.5222 96.5902 15.5301 96.6293 15.5301 96.6762V99.421C15.5301 99.5305 15.5301 99.6478 15.5301 99.7729C15.5144 99.898 15.5066 100.015 15.5066 100.125C15.5066 100.234 15.4988 100.336 15.4831 100.43C15.4831 100.524 15.4206 100.578 15.2955 100.594ZM3.02612 97.1454C2.90101 97.1298 2.79153 97.122 2.69769 97.122C2.60385 97.122 2.51783 97.122 2.43964 97.122C2.22068 97.122 2.02518 97.1376 1.85315 97.1689C1.66547 97.2001 1.50126 97.2705 1.3605 97.38C1.23538 97.4738 1.13372 97.599 1.05553 97.7554C0.977327 97.9118 0.938227 98.1151 0.938227 98.3653V98.553C0.938227 98.9283 1.02425 99.2177 1.19628 99.421C1.35268 99.6243 1.63419 99.726 2.04082 99.726H2.20504C2.29888 99.726 2.39272 99.726 2.48656 99.726C2.59604 99.7103 2.68987 99.679 2.76807 99.6321C2.84627 99.6008 2.90883 99.5539 2.95575 99.4914C3.00267 99.4288 3.02612 99.3428 3.02612 99.2333V97.1454ZM14.7559 97.1454C14.6308 97.1298 14.5056 97.122 14.3805 97.122C14.2554 97.1063 14.1147 97.0985 13.9583 97.0985C13.536 97.0985 13.2154 97.208 12.9964 97.4269C12.7775 97.6459 12.668 97.9587 12.668 98.3653V98.5764C12.668 98.9987 12.7618 99.3193 12.9495 99.5383C13.1372 99.7572 13.4422 99.8667 13.8644 99.8667C14.0052 99.8667 14.1538 99.8667 14.3102 99.8667C14.4822 99.8667 14.6308 99.8589 14.7559 99.8433V97.1454Z" fill="white"/>
<path d="M21.3246 95.7389H21.7001C21.7471 95.7389 21.7941 95.7232 21.841 95.6919C21.8879 95.645 21.9114 95.598 21.9114 95.5511V95.0581C21.9114 94.9955 21.8879 94.9407 21.841 94.8938C21.7941 94.8625 21.7471 94.8468 21.7001 94.8468H21.3246C21.262 94.8468 21.215 94.8625 21.1837 94.8938C21.1368 94.9407 21.1133 94.9955 21.1133 95.0581V95.5511C21.1133 95.598 21.1368 95.645 21.1837 95.6919C21.215 95.7232 21.262 95.7389 21.3246 95.7389Z" fill="white"/>
<path d="M22.8498 95.7389H23.2019C23.2489 95.7389 23.2958 95.7232 23.3428 95.6919C23.3897 95.645 23.4132 95.598 23.4132 95.5511V95.0581C23.4132 94.9955 23.3897 94.9407 23.3428 94.8938C23.2958 94.8625 23.2489 94.8468 23.2019 94.8468H22.8498C22.7872 94.8468 22.7324 94.8625 22.6855 94.8938C22.6385 94.9407 22.6151 94.9955 22.6151 95.0581V95.5511C22.6151 95.598 22.6385 95.645 22.6855 95.6919C22.7324 95.7232 22.7872 95.7389 22.8498 95.7389Z" fill="white"/>
<path d="M27.3537 100.618C27.4632 100.602 27.5648 100.594 27.6587 100.594C27.7525 100.579 27.8229 100.563 27.8698 100.548C27.9324 100.516 27.9793 100.477 28.0105 100.43C28.0418 100.399 28.0575 100.352 28.0575 100.289C28.0731 100.211 28.0809 100.125 28.0809 100.031C28.0966 99.9376 28.1044 99.8437 28.1044 99.7499C28.1044 99.6561 28.1044 99.5622 28.1044 99.4684V99.2103V93.9085C28.1044 93.8616 28.0888 93.8225 28.0575 93.7912C28.0262 93.7599 27.9871 93.7443 27.9402 93.7443H27.4944C27.4475 93.7443 27.4084 93.7599 27.3771 93.7912C27.3459 93.8225 27.3302 93.8616 27.3302 93.9085V99.5153C27.3302 99.6717 27.3068 99.7655 27.2598 99.7968C27.2129 99.8281 27.0956 99.8437 26.908 99.8437H26.2276H26.1807H26.1103C26.0478 99.8437 25.9852 99.8437 25.9227 99.8437C25.8445 99.8437 25.7663 99.8359 25.6881 99.8203C25.6255 99.8046 25.5629 99.7812 25.5004 99.7499C25.4535 99.7186 25.4144 99.6795 25.3831 99.6326V93.9085C25.3831 93.8616 25.3674 93.8225 25.3362 93.7912C25.3049 93.7599 25.2658 93.7443 25.2189 93.7443H24.7731C24.7262 93.7443 24.6871 93.7599 24.6558 93.7912C24.6246 93.8225 24.6089 93.8616 24.6089 93.9085V99.5153C24.6089 99.5935 24.5855 99.6561 24.5385 99.703C24.4916 99.7499 24.4369 99.7812 24.3743 99.7968C24.2961 99.8281 24.2257 99.8437 24.1632 99.8437C24.085 99.8437 24.0146 99.8437 23.9521 99.8437H23.5298H23.4594H23.389C23.3265 99.8437 23.2639 99.8437 23.2013 99.8437C23.1231 99.8437 23.0528 99.8359 22.9902 99.8203C22.912 99.8046 22.8416 99.7812 22.7791 99.7499C22.7322 99.7186 22.6931 99.6795 22.6618 99.6326V97.099C22.6618 97.0521 22.6461 97.013 22.6149 96.9817C22.5836 96.9504 22.5445 96.9348 22.4976 96.9348H22.0753C22.0284 96.9348 21.9893 96.9504 21.958 96.9817C21.9267 97.013 21.9111 97.0521 21.9111 97.099V99.5153C21.9111 99.5935 21.8876 99.6561 21.8407 99.703C21.7938 99.7499 21.7312 99.7812 21.653 99.7968C21.5905 99.8281 21.5201 99.8437 21.4419 99.8437C21.3793 99.8437 21.3168 99.8437 21.2542 99.8437H20.9023H20.8319H18.9083H18.8613H18.0637V97.099C18.0637 97.0521 18.0481 97.013 18.0168 96.9817C17.9855 96.9504 17.9542 96.9348 17.923 96.9348H17.4538C17.4068 96.9348 17.3677 96.9504 17.3365 96.9817C17.3052 97.013 17.2896 97.0521 17.2896 97.099V101.181C17.2896 101.384 17.2739 101.541 17.2426 101.65C17.227 101.775 17.1722 101.869 17.0784 101.932C17.0002 101.994 16.8986 102.033 16.7734 102.049C16.6483 102.065 16.4841 102.072 16.2808 102.072H16.0931C15.9836 102.072 15.9289 102.119 15.9289 102.213V102.589C15.9289 102.635 15.9367 102.675 15.9524 102.706C15.968 102.721 16.0071 102.737 16.0697 102.753C16.1322 102.753 16.2182 102.761 16.3277 102.776C16.4215 102.776 16.4841 102.776 16.5154 102.776C16.8751 102.776 17.1644 102.737 17.3834 102.659C17.6023 102.565 17.7744 102.416 17.8995 102.213C17.9621 102.088 18.0012 101.939 18.0168 101.767C18.0481 101.611 18.0637 101.431 18.0637 101.228V100.641H18.8613H18.9083H20.8319H20.9023H21.1369C21.3089 100.641 21.5044 100.626 21.7234 100.594C21.9267 100.548 22.1066 100.462 22.263 100.336C22.4037 100.462 22.5836 100.548 22.8025 100.594C23.0215 100.626 23.2248 100.641 23.4125 100.641H23.4594H23.5298H23.8582C24.0303 100.641 24.2258 100.626 24.4447 100.594C24.648 100.548 24.8279 100.462 24.9843 100.336C25.0468 100.399 25.1329 100.454 25.2423 100.501C25.3362 100.532 25.43 100.563 25.5238 100.594C25.6177 100.61 25.7193 100.618 25.8288 100.618C25.9383 100.634 26.0399 100.641 26.1338 100.641H26.1807H26.2276H26.6734C26.7672 100.641 26.8767 100.641 27.0018 100.641C27.1269 100.641 27.2442 100.634 27.3537 100.618Z" fill="white"/>
<path d="M34.2045 95.3873H34.5566C34.6192 95.3873 34.6661 95.3638 34.6974 95.3169C34.7444 95.2856 34.7679 95.2386 34.7679 95.176V94.6831C34.7679 94.6205 34.7444 94.5735 34.6974 94.5422C34.6661 94.5109 34.6192 94.4953 34.5566 94.4953H34.2045C34.1419 94.4953 34.0871 94.5109 34.0402 94.5422C33.9932 94.5735 33.9697 94.6205 33.9697 94.6831V95.176C33.9697 95.2386 33.9932 95.2856 34.0402 95.3169C34.0871 95.3638 34.1419 95.3873 34.2045 95.3873Z" fill="white"/>
<path d="M32.7025 95.3873H33.0546C33.1016 95.3873 33.1485 95.3638 33.1955 95.3169C33.2424 95.2856 33.2659 95.2386 33.2659 95.176V94.6831C33.2659 94.6205 33.2424 94.5735 33.1955 94.5422C33.1642 94.5109 33.1172 94.4953 33.0546 94.4953H32.7025C32.6399 94.4953 32.5851 94.5109 32.5382 94.5422C32.5069 94.5735 32.4912 94.6205 32.4912 94.6831V95.176C32.4912 95.2386 32.5069 95.2856 32.5382 95.3169C32.5851 95.3638 32.6399 95.3873 32.7025 95.3873Z" fill="white"/>
<path fill-rule="evenodd" clip-rule="evenodd" d="M44.9011 100.782C44.557 100.782 44.252 100.735 43.9862 100.641C43.7359 100.547 43.5326 100.398 43.3762 100.195C43.2667 100.367 43.1103 100.484 42.907 100.547C42.6881 100.61 42.4456 100.641 42.1798 100.641H35.8692C35.5876 100.641 35.353 100.602 35.1654 100.524C34.9777 100.445 34.8369 100.305 34.7431 100.101C34.6336 100.242 34.4694 100.344 34.2504 100.406C34.0315 100.453 33.7969 100.477 33.5467 100.477H33.4763C32.8976 100.477 32.4597 100.32 32.1626 100.007C31.8498 99.6947 31.6934 99.2411 31.6934 98.6468V98.4122C31.6934 98.0525 31.7481 97.7475 31.8576 97.4973C31.9827 97.2314 32.1469 97.0203 32.3502 96.8639C32.5692 96.7075 32.8194 96.5902 33.1009 96.512C33.3981 96.4338 33.7187 96.3947 34.0628 96.3947C34.141 96.3947 34.2348 96.3947 34.3443 96.3947C34.4538 96.4103 34.5554 96.4181 34.6493 96.4181C34.7587 96.4338 34.8604 96.4494 34.9542 96.4651C35.0324 96.4807 35.1106 96.4963 35.1888 96.512C35.2514 96.5276 35.2905 96.5511 35.3061 96.5824C35.3218 96.6136 35.3296 96.6527 35.3296 96.6997V99.2802C35.3296 99.5148 35.3843 99.6712 35.4938 99.7494C35.6033 99.812 35.7597 99.8432 35.963 99.8432H42.344C42.3753 99.8432 42.43 99.8432 42.5082 99.8432C42.5708 99.8432 42.6333 99.8276 42.6959 99.7963C42.7741 99.765 42.8366 99.7338 42.8836 99.7025C42.9305 99.6556 42.9696 99.6008 43.0008 99.5383C43.0165 99.4601 43.0243 99.3662 43.0243 99.2567V98.3887C43.0243 97.7475 43.1885 97.2627 43.517 96.9342C43.8454 96.5902 44.3146 96.4181 44.9245 96.4181C45.5345 96.4181 45.9959 96.5824 46.3086 96.9108C46.6214 97.2549 46.7778 97.7397 46.7778 98.3653V98.8345C46.7778 99.4757 46.6293 99.9605 46.3321 100.289C46.035 100.617 45.5579 100.782 44.9011 100.782ZM34.5554 97.1454C34.4303 97.1297 34.3208 97.1219 34.227 97.1219C34.1331 97.1219 34.0471 97.1219 33.9689 97.1219C33.75 97.1219 33.5467 97.1376 33.359 97.1688C33.1713 97.2001 33.0149 97.2705 32.8898 97.38C32.7647 97.4738 32.663 97.5989 32.5848 97.7553C32.5066 97.9117 32.4675 98.115 32.4675 98.3653V98.553C32.4675 98.9283 32.5457 99.2176 32.7021 99.421C32.8742 99.6243 33.1557 99.7259 33.5467 99.7259H33.7343C33.8282 99.7259 33.922 99.7259 34.0159 99.7259C34.1097 99.7103 34.1957 99.679 34.2739 99.6321C34.3521 99.6008 34.4225 99.5539 34.485 99.4913C34.532 99.4288 34.5554 99.3428 34.5554 99.2333V97.1454ZM44.1973 99.9136C44.385 100.007 44.6196 100.054 44.9011 100.054C45.3077 100.054 45.5892 99.9605 45.7456 99.7729C45.9177 99.5852 46.0037 99.2646 46.0037 98.811V98.4591C46.0037 98.0368 45.9255 97.7162 45.7691 97.4973C45.597 97.2627 45.3155 97.1454 44.9245 97.1454C44.5179 97.1454 44.2286 97.2627 44.0565 97.4973C43.8845 97.7162 43.7985 98.0368 43.7985 98.4591V98.8579C43.7985 99.0612 43.8063 99.2333 43.8219 99.374C43.8845 99.6399 44.0096 99.8198 44.1973 99.9136Z" fill="white"/>
<path fill-rule="evenodd" clip-rule="evenodd" d="M58.6485 100.548C58.6016 100.563 58.5312 100.579 58.4373 100.594C58.3591 100.594 58.2653 100.602 58.1558 100.618C58.0307 100.634 57.9134 100.641 57.8039 100.641C57.6788 100.641 57.5693 100.641 57.4755 100.641H49.4054C49.2021 100.641 49.0301 100.626 48.8893 100.594C48.7329 100.563 48.6078 100.501 48.514 100.407C48.4045 100.313 48.3263 100.196 48.2794 100.055C48.2324 99.9142 48.209 99.7265 48.209 99.4919V93.9085C48.1933 93.8616 48.209 93.8225 48.2559 93.7912C48.2872 93.7599 48.3263 93.7443 48.3732 93.7443H48.8189C48.8659 93.7443 48.905 93.7599 48.9362 93.7912C48.9675 93.8225 48.9832 93.8616 48.9832 93.9085V99.3042C48.9832 99.4293 48.9988 99.531 49.0301 99.6092C49.0614 99.6717 49.1005 99.7187 49.1474 99.7499C49.1943 99.7969 49.2568 99.8281 49.335 99.8438C49.4132 99.8438 49.4993 99.8438 49.5931 99.8438H53.2293L52.3613 97.6386C52.3457 97.6229 52.3379 97.5995 52.3379 97.5682C52.3379 97.5369 52.3379 97.5135 52.3379 97.4978V97.2163C52.3535 97.1381 52.4082 97.0599 52.5021 96.9817C52.6116 96.8879 52.7367 96.8019 52.8774 96.7237C53.0182 96.6611 53.1746 96.5985 53.3466 96.536C53.5187 96.4891 53.6985 96.45 53.8862 96.4187C54.0739 96.3874 54.2537 96.3718 54.4258 96.3718C54.7386 96.3718 55.0201 96.403 55.2703 96.4656C55.5205 96.5438 55.7395 96.6533 55.9272 96.794C56.1148 96.9348 56.2556 97.1225 56.3494 97.3571C56.4433 97.576 56.4902 97.8419 56.4902 98.1547V98.3189C56.4902 98.4753 56.4746 98.6317 56.4433 98.7881C56.4276 98.9288 56.3885 99.0696 56.326 99.2104C56.2634 99.3511 56.2009 99.4762 56.1383 99.5857C56.0601 99.6952 55.9741 99.7812 55.8803 99.8438H57.7101C57.8821 99.8438 57.9916 99.8281 58.0385 99.7969C58.0854 99.7656 58.1089 99.6717 58.1089 99.5153V93.9085C58.1089 93.8616 58.1245 93.8225 58.1558 93.7912C58.2027 93.7599 58.2497 93.7443 58.2966 93.7443H58.7423C58.7892 93.7443 58.8283 93.7599 58.8596 93.7912C58.8909 93.8225 58.9065 93.8616 58.9065 93.9085V99.4684C58.9065 99.5623 58.9065 99.6561 58.9065 99.7499C58.9065 99.8438 58.8987 99.9376 58.8831 100.031C58.8831 100.125 58.8753 100.211 58.8596 100.29C58.844 100.352 58.8283 100.399 58.8127 100.43C58.7814 100.477 58.7267 100.516 58.6485 100.548ZM55.7395 98.2485C55.7395 97.8419 55.6222 97.5447 55.3876 97.3571C55.153 97.185 54.8324 97.099 54.4258 97.099C54.2694 97.099 54.066 97.1225 53.8158 97.1694C53.5656 97.2007 53.331 97.2945 53.112 97.4509L54.0504 99.8672H54.7073C55.0357 99.789 55.2859 99.6092 55.458 99.3277C55.6457 99.0461 55.7395 98.7177 55.7395 98.3424V98.2485Z" fill="white"/>
<path d="M60.6428 100.641H61.0885C61.1354 100.641 61.1745 100.626 61.2058 100.594C61.2371 100.548 61.2527 100.501 61.2527 100.454V93.9085C61.2527 93.8616 61.2371 93.8225 61.2058 93.7912C61.1745 93.7599 61.1354 93.7443 61.0885 93.7443H60.6428C60.5959 93.7443 60.5568 93.7599 60.5255 93.7912C60.4942 93.8225 60.4786 93.8616 60.4786 93.9085V100.454C60.4786 100.501 60.4942 100.548 60.5255 100.594C60.5568 100.626 60.5959 100.641 60.6428 100.641Z" fill="white"/>
<path d="M67.4467 95.3873H67.7988C67.8614 95.3873 67.9083 95.3638 67.9396 95.3169C67.9866 95.2856 68.0101 95.2386 68.0101 95.176V94.6831C68.0101 94.6205 67.9866 94.5735 67.9396 94.5422C67.9083 94.5109 67.8614 94.4953 67.7988 94.4953H67.4467C67.3841 94.4953 67.3293 94.5109 67.2823 94.5422C67.2354 94.5735 67.2119 94.6205 67.2119 94.6831V95.176C67.2119 95.2386 67.2354 95.2856 67.2823 95.3169C67.3293 95.3638 67.3841 95.3873 67.4467 95.3873Z" fill="white"/>
<path d="M65.9447 95.3873H66.2968C66.3437 95.3873 66.3907 95.3638 66.4376 95.3169C66.4846 95.2856 66.5081 95.2386 66.5081 95.176V94.6831C66.5081 94.6205 66.4846 94.5735 66.4376 94.5422C66.4063 94.5109 66.3594 94.4953 66.2968 94.4953H65.9447C65.8821 94.4953 65.8273 94.5109 65.7803 94.5422C65.749 94.5735 65.7334 94.6205 65.7334 94.6831V95.176C65.7334 95.2386 65.749 95.2856 65.7803 95.3169C65.8273 95.3638 65.8821 95.3873 65.9447 95.3873Z" fill="white"/>
<path d="M74.0617 95.7849H75.2816C75.3441 95.7849 75.3832 95.7849 75.3989 95.7849C75.4302 95.7692 75.4458 95.738 75.4458 95.691V95.5268C75.4458 95.4643 75.3911 95.433 75.2816 95.433H74.6716C74.6247 95.4017 74.5778 95.347 74.5309 95.2688C74.4996 95.1906 74.4839 95.0811 74.4839 94.9403C74.4839 94.6745 74.6403 94.5415 74.9531 94.5415C74.9844 94.5415 75.0392 94.5415 75.1174 94.5415C75.1956 94.5415 75.2425 94.5415 75.2581 94.5415C75.3363 94.5415 75.3754 94.5102 75.3754 94.4477V94.3069C75.3754 94.26 75.3363 94.2287 75.2581 94.2131C75.1956 94.1974 75.133 94.1818 75.0704 94.1662C75.0235 94.1662 74.9688 94.1662 74.9062 94.1662C74.6403 94.1662 74.4292 94.2287 74.2728 94.3538C74.1321 94.4633 74.0617 94.651 74.0617 94.9169C74.0617 95.0107 74.0695 95.1045 74.0851 95.1984C74.1164 95.2922 74.1555 95.3704 74.2024 95.433H74.0617C73.9522 95.433 73.8975 95.4643 73.8975 95.5268V95.691C73.8975 95.7536 73.9522 95.7849 74.0617 95.7849Z" fill="white"/>
<path d="M78.6601 102.378C78.707 102.378 78.754 102.362 78.8009 102.331C78.8479 102.284 78.8714 102.237 78.8714 102.19V101.697C78.8714 101.634 78.8479 101.587 78.8009 101.556C78.7696 101.509 78.7227 101.486 78.6601 101.486H78.308C78.2454 101.486 78.1906 101.509 78.1436 101.556C78.0967 101.587 78.081 101.634 78.0967 101.697V102.19C78.081 102.237 78.0967 102.284 78.1436 102.331C78.1906 102.362 78.2454 102.378 78.308 102.378H78.6601Z" fill="white"/>
<path d="M80.3019 102.332C80.3489 102.285 80.3724 102.238 80.3724 102.191V101.698C80.3724 101.635 80.3489 101.588 80.3019 101.557C80.2706 101.51 80.2237 101.486 80.1611 101.486H79.809C79.7464 101.486 79.6916 101.51 79.6446 101.557C79.5977 101.588 79.5742 101.635 79.5742 101.698V102.191C79.5742 102.238 79.5977 102.285 79.6446 102.332C79.6916 102.363 79.7464 102.379 79.809 102.379H80.1611C80.2237 102.379 80.2706 102.363 80.3019 102.332Z" fill="white"/>
<path fill-rule="evenodd" clip-rule="evenodd" d="M89.7557 100.031C89.7557 100.125 89.7479 100.211 89.7323 100.29C89.7166 100.352 89.701 100.399 89.6853 100.43C89.6541 100.477 89.5993 100.516 89.5211 100.548C89.4742 100.563 89.4038 100.579 89.31 100.594C89.2162 100.594 89.1145 100.602 89.005 100.618C88.8955 100.634 88.7861 100.641 88.6766 100.641C88.5515 100.641 88.4342 100.641 88.3247 100.641H87.7148C87.6209 100.641 87.5114 100.641 87.3863 100.641C87.2768 100.641 87.2065 100.649 87.1752 100.665L87.1517 100.993C87.1361 101.635 86.9953 102.119 86.7294 102.448C86.4636 102.792 86.0178 102.964 85.3923 102.964C85.0325 102.964 84.7354 102.917 84.5008 102.823C84.2662 102.729 84.0785 102.596 83.9378 102.424C83.797 102.252 83.7032 102.041 83.6562 101.791C83.5937 101.541 83.5624 101.259 83.5624 100.946V100.641H80.4892C80.3015 100.641 80.0982 100.626 79.8793 100.594C79.6603 100.548 79.4805 100.462 79.3397 100.336C79.1833 100.462 78.9956 100.548 78.7767 100.594C78.5733 100.626 78.3857 100.641 78.2136 100.641H75.8911C75.6878 100.641 75.4767 100.626 75.2577 100.594C75.0544 100.548 74.8824 100.462 74.7416 100.336C74.5852 100.462 74.3976 100.548 74.1786 100.594C73.9753 100.626 73.7876 100.641 73.6156 100.641H69.1113C68.8298 100.641 68.5952 100.602 68.4076 100.524C68.2199 100.446 68.0791 100.305 67.9853 100.102C67.8758 100.243 67.7116 100.344 67.4926 100.407C67.2737 100.454 67.0391 100.477 66.7889 100.477H66.695C66.132 100.477 65.6941 100.321 65.3813 100.008C65.0841 99.6952 64.9355 99.2416 64.9355 98.6473V98.4127C64.9355 98.053 64.9903 97.7481 65.0998 97.4978C65.2249 97.2319 65.3891 97.0208 65.5924 96.8644C65.8114 96.708 66.0616 96.5907 66.3431 96.5125C66.6403 96.4343 66.9609 96.3952 67.305 96.3952C67.3832 96.3952 67.477 96.3952 67.5865 96.3952C67.6959 96.4109 67.7976 96.4187 67.8915 96.4187C68.0009 96.4343 68.0948 96.45 68.173 96.4656C68.2668 96.4812 68.3528 96.4969 68.431 96.5125C68.4936 96.5282 68.5327 96.5516 68.5483 96.5829C68.5483 96.6142 68.5483 96.6533 68.5483 96.7002V99.2807C68.564 99.5153 68.6265 99.6717 68.736 99.7499C68.8455 99.8125 69.0019 99.8438 69.2052 99.8438H73.7329C73.7798 99.8438 73.8423 99.8438 73.9205 99.8438C73.9987 99.8438 74.0691 99.8281 74.1317 99.7969C74.1942 99.7812 74.249 99.7499 74.2959 99.703C74.3428 99.6561 74.3663 99.5935 74.3663 99.5153V97.099C74.3663 97.0521 74.3819 97.013 74.4132 96.9817C74.4601 96.9504 74.507 96.9348 74.554 96.9348H74.9762C75.0231 96.9348 75.0622 96.9504 75.0935 96.9817C75.1248 97.013 75.1404 97.0521 75.1404 97.099V99.6326C75.1561 99.6796 75.1952 99.7187 75.2577 99.7499C75.3203 99.7812 75.3829 99.8047 75.4454 99.8203C75.5236 99.836 75.6018 99.8438 75.68 99.8438C75.7426 99.8438 75.8051 99.8438 75.8677 99.8438H78.3309C78.3935 99.8438 78.4561 99.8438 78.5186 99.8438C78.5968 99.8438 78.6672 99.8281 78.7297 99.7969C78.8079 99.7812 78.8705 99.7499 78.9174 99.703C78.9487 99.6561 78.9643 99.5935 78.9643 99.5153V97.099C78.9643 97.0521 78.9878 97.013 79.0347 96.9817C79.066 96.9504 79.1051 96.9348 79.152 96.9348H79.5743C79.6212 96.9348 79.6603 96.9504 79.6916 96.9817C79.7229 97.013 79.7385 97.0521 79.7385 97.099V99.6326C79.7698 99.6796 79.8089 99.7187 79.8558 99.7499C79.9184 99.7812 79.9809 99.8047 80.0435 99.8203C80.1217 99.836 80.1999 99.8438 80.2781 99.8438C80.3406 99.8438 80.4032 99.8438 80.4658 99.8438H83.5624V96.794C83.5624 96.6689 83.6328 96.5829 83.7735 96.536C83.9612 96.4891 84.1645 96.4578 84.3835 96.4421C84.6181 96.4265 84.8527 96.4187 85.0873 96.4187C85.7285 96.4187 86.2368 96.5594 86.6122 96.841C86.9875 97.1225 87.1752 97.5838 87.1752 98.2251V98.3658C87.1752 98.9132 87.0735 99.3746 86.8702 99.7499C86.6512 100.125 86.315 100.383 85.8614 100.524C85.7676 100.555 85.6581 100.579 85.533 100.594C85.3922 100.594 85.2593 100.602 85.1342 100.618C84.9934 100.634 84.8527 100.641 84.7119 100.641C84.5712 100.641 84.4461 100.641 84.3366 100.641V100.876C84.3366 101.33 84.407 101.674 84.5477 101.908C84.7041 102.127 84.9856 102.237 85.3923 102.237C85.7832 102.237 86.0491 102.127 86.1899 101.908C86.3306 101.705 86.4088 101.376 86.4245 100.923C86.4245 100.907 86.4245 100.868 86.4245 100.806C86.4245 100.759 86.4323 100.712 86.4479 100.665C86.4479 100.618 86.4479 100.571 86.4479 100.524C86.4636 100.462 86.4714 100.422 86.4714 100.407C86.5339 100.188 86.6512 100.039 86.8233 99.9611C86.9171 99.9141 87.0188 99.8829 87.1283 99.8672C87.2534 99.8516 87.3863 99.8438 87.5271 99.8438H88.5827C88.7548 99.8438 88.8643 99.8281 88.9112 99.7969C88.9581 99.7656 88.9816 99.6717 88.9816 99.5153V93.9085C88.9816 93.8616 88.9972 93.8225 89.0285 93.7912C89.0754 93.7599 89.1223 93.7443 89.1692 93.7443H89.615C89.6619 93.7443 89.701 93.7599 89.7323 93.7912C89.7635 93.8225 89.7792 93.8616 89.7792 93.9085V99.4684C89.7792 99.5623 89.7792 99.6561 89.7792 99.7499C89.7792 99.8438 89.7714 99.9376 89.7557 100.031ZM84.3366 99.8438H85.0638C85.5486 99.8438 85.8927 99.7265 86.096 99.4919C86.315 99.2416 86.4245 98.8897 86.4245 98.4362V98.272C86.4245 98.053 86.3854 97.8732 86.3072 97.7324C86.2446 97.5917 86.1586 97.4744 86.0491 97.3805C85.9396 97.2867 85.8067 97.2241 85.6503 97.1928C85.4783 97.1459 85.2906 97.1225 85.0873 97.1225C84.9309 97.1225 84.7979 97.1303 84.6885 97.1459C84.579 97.1459 84.4617 97.1537 84.3366 97.1694V99.8438ZM67.7976 97.1459C67.6725 97.1459 67.563 97.1381 67.4692 97.1225C67.3753 97.1225 67.2893 97.1225 67.2111 97.1225C66.9922 97.1225 66.7889 97.1381 66.6012 97.1694C66.4135 97.2007 66.2571 97.271 66.132 97.3805C66.0069 97.4744 65.9052 97.5995 65.827 97.7559C65.7488 97.9123 65.7097 98.1156 65.7097 98.3658V98.5535C65.7097 98.9288 65.7879 99.2182 65.9443 99.4215C66.1163 99.6248 66.3979 99.7265 66.7889 99.7265H66.9765C67.0704 99.7265 67.1642 99.7265 67.258 99.7265C67.3519 99.7108 67.4379 99.6796 67.5161 99.6326C67.5943 99.6014 67.6568 99.5544 67.7038 99.4919C67.7663 99.4293 67.7976 99.3511 67.7976 99.2573V97.1459Z" fill="white"/>
<path d="M91.5158 100.641H91.9615C92.0085 100.641 92.0476 100.626 92.0788 100.594C92.1101 100.548 92.1258 100.501 92.1258 100.454V93.9085C92.1258 93.8616 92.1101 93.8225 92.0788 93.7912C92.0476 93.7599 92.0085 93.7443 91.9615 93.7443H91.5158C91.4689 93.7443 91.4298 93.7599 91.3985 93.7912C91.3516 93.8225 91.3281 93.8616 91.3281 93.9085V100.454C91.3281 100.501 91.3516 100.548 91.3985 100.594C91.4298 100.626 91.4689 100.641 91.5158 100.641Z" fill="white"/>
</svg>
