<svg width="32" height="31" viewBox="0 0 32 31" fill="none" xmlns="http://www.w3.org/2000/svg">
<path d="M15.9772 4.26947C19.5198 4.26947 19.9408 4.26947 21.3346 4.34206C22.1767 4.34206 23.0189 4.50177 23.8029 4.79214C24.9644 5.24222 25.8791 6.15689 26.3146 7.30387C26.605 8.08787 26.7647 8.92995 26.7792 9.77204C26.8373 11.1658 26.8518 11.5869 26.8518 15.1294C26.8518 18.672 26.8518 19.093 26.7792 20.4868C26.7792 21.3289 26.6195 22.171 26.3146 22.955C25.8645 24.1165 24.9499 25.0311 23.8029 25.4667C23.0189 25.7571 22.1767 25.9168 21.3346 25.9313C19.9408 25.9894 19.5198 26.0039 15.9772 26.0039C12.4346 26.0039 12.0136 25.9894 10.6198 25.9313C9.77766 25.9313 8.93555 25.7716 8.15154 25.4667C6.99003 25.0166 6.07535 24.1019 5.63978 22.955C5.34941 22.171 5.18971 21.3289 5.17519 20.4868C5.11712 19.093 5.10259 18.672 5.10259 15.1294C5.10259 11.5869 5.1026 11.1658 5.17519 9.77204C5.17519 8.92995 5.33489 8.08787 5.63978 7.30387C6.08987 6.14237 7.00455 5.2277 8.15154 4.79214C8.93555 4.50177 9.77766 4.34206 10.6198 4.34206C12.0136 4.28399 12.4346 4.26947 15.9772 4.26947ZM15.9772 1.87389C12.3765 1.87389 11.9264 1.88841 10.5036 1.96101C9.40017 1.99004 8.31126 2.1933 7.28042 2.58531C5.4946 3.26768 4.08628 4.67599 3.40389 6.46179C3.01188 7.49261 2.80861 8.58151 2.77957 9.68492C2.72149 11.1078 2.70697 11.5433 2.70697 15.1585C2.70697 18.7736 2.72149 19.2092 2.77957 20.632C2.79409 21.7354 3.01188 22.8243 3.40389 23.8551C4.08628 25.6409 5.4946 27.0492 7.28042 27.7316C8.31126 28.1236 9.40017 28.3269 10.5036 28.3414C11.9264 28.3995 12.3765 28.4285 15.9772 28.4285C19.5779 28.4285 20.028 28.414 21.4508 28.3414C22.5542 28.3269 23.6431 28.1091 24.674 27.7171C26.4598 27.0347 27.8681 25.6264 28.5505 23.8406C28.9425 22.8098 29.1458 21.7209 29.1603 20.6175C29.2184 19.2092 29.2329 18.7591 29.2329 15.1439C29.2329 11.5288 29.2184 11.0932 29.1603 9.67041C29.1313 8.56699 28.928 7.47809 28.5505 6.44727C27.8681 4.66147 26.4598 3.25316 24.674 2.57079C23.6431 2.17878 22.5542 1.97552 21.4508 1.94649C20.028 1.88841 19.5779 1.85938 15.9772 1.85938" fill="white"/>
<path d="M15.9774 8.33447C12.2171 8.33447 9.16809 11.3834 9.16809 15.1437C9.16809 18.904 12.2171 21.953 15.9774 21.953C19.7378 21.953 22.7867 18.904 22.7867 15.1437C22.7867 11.3834 19.7378 8.33447 15.9774 8.33447ZM15.9774 19.5719C13.5383 19.5719 11.5492 17.5974 11.5492 15.1437C11.5492 12.7046 13.5237 10.7155 15.9774 10.7155C18.4166 10.7155 20.4057 12.6901 20.4057 15.1437C20.4057 17.5974 18.4311 19.5719 15.9774 19.5719Z" fill="white"/>
<path d="M24.8339 8.14588C24.8339 9.03152 24.1224 9.74293 23.2368 9.74293C22.3511 9.74293 21.6397 9.03152 21.6397 8.14588C21.6397 7.26024 22.3511 6.54883 23.2368 6.54883C24.1224 6.54883 24.8339 7.26024 24.8339 8.14588Z" fill="white" stroke="white" stroke-width="0.523561"/>
</svg>
