<svg width="31" height="31" viewBox="0 0 31 31" fill="none" xmlns="http://www.w3.org/2000/svg">
<path d="M17.2765 19.1385C17.2765 16.6407 18.4221 15.1611 20.6176 15.1611C22.6382 15.1611 23.6087 16.5929 23.6087 19.1385V28.4456H29.0658V17.2293C29.0658 12.4882 26.377 10.1813 22.6223 10.1813C20.4585 10.1495 18.4221 11.2632 17.2765 13.1087V10.7223H12.0104V28.4456H17.2765V19.1385Z" fill="white"/>
<path d="M8.51002 10.7227H3.02112V28.446H8.51002V10.7227Z" fill="white"/>
<path d="M5.74146 8.39887C7.55518 8.39887 9.0189 6.967 9.03481 5.15329C9.03481 3.33959 7.60291 1.8759 5.78918 1.85999C3.97546 1.84408 2.51176 3.29186 2.49585 5.10557C2.49585 5.10557 2.49585 5.12148 2.49585 5.13739C2.49585 6.93518 3.94364 8.39887 5.74146 8.41478" fill="white"/>
</svg>
