<svg width="36" height="31" viewBox="0 0 36 31" fill="none" xmlns="http://www.w3.org/2000/svg">
<path d="M2.87091 25.7071C11.7385 31.3918 23.5129 28.8162 29.1977 19.9487C31.3318 16.6188 32.3805 12.7186 32.1965 8.78162C33.5027 7.84336 34.6434 6.66594 35.5449 5.30454C34.3306 5.83806 33.0244 6.20601 31.6998 6.35319C33.098 5.50691 34.1467 4.20071 34.6434 2.63694C33.3372 3.40963 31.8838 3.96155 30.3936 4.2743C27.8547 1.5699 23.6049 1.44112 20.9189 3.97994C19.1711 5.6173 18.4352 8.06413 18.9687 10.3822C13.5783 10.1062 8.55575 7.5674 5.15221 3.37283C3.36765 6.42677 4.28752 10.3454 7.23112 12.3139C6.16407 12.2771 5.1338 12.0011 4.19553 11.4676C4.15874 14.6871 6.42163 17.4835 9.5676 18.1274C8.57413 18.4034 7.54387 18.4402 6.55041 18.2378C7.43349 20.9606 9.93555 22.8371 12.8056 22.8923C9.99074 25.1 6.42163 26.0934 2.88931 25.6703" fill="white"/>
</svg>
